<?xml version="1.0" encoding="UTF-8"?>
<svg version="1.1" xmlns="http://www.w3.org/2000/svg" width="2048" height="2048">
<path d="M0 0 C0.82321747 0.00054382 1.64643494 0.00108765 2.49459839 0.00164795 C36.37753246 0.10380221 67.96558203 8.07687187 98.14453125 23.390625 C99.46587462 24.05377321 100.7875538 24.71625268 102.10954285 25.37811279 C105.54987369 27.10301087 108.98515002 28.83774494 112.41949463 30.57452393 C115.17948331 31.96808056 117.94315276 33.35424103 120.70700264 34.74011993 C143.62983979 46.23537201 143.62983979 46.23537201 154.88671875 52.234375 C163.72125465 56.93727326 172.67063559 61.40609091 181.625 65.875 C182.39154593 66.25756706 183.15809185 66.64013412 183.94786644 67.03429413 C189.52633355 69.81736298 195.10673203 72.59654853 200.6875 75.375 C207.04293418 78.53912822 213.3976083 81.70476723 219.75 84.875 C220.51868408 85.2585817 221.28736816 85.64216339 222.0793457 86.03736877 C230.13712141 90.06107468 238.18056233 94.09926272 246.125 98.34375 C255.01981339 103.09513681 264.04005917 107.59121153 273.0625 112.09375 C273.8514566 112.48750824 274.64041321 112.88126648 275.45327759 113.28695679 C281.19661029 116.15246585 286.94186557 119.01410959 292.6875 121.875 C299.23043141 125.13288387 305.77260621 128.39227191 312.3125 131.65625 C313.1026651 132.0505722 313.8928302 132.44489441 314.7069397 132.85116577 C323.63267462 137.30844623 332.52292409 141.81216451 341.32299805 146.51379395 C349.35151311 150.77655954 357.49197216 154.81653088 365.625 158.875 C366.39207275 159.25781631 367.15914551 159.64063263 367.94946289 160.03504944 C373.52739901 162.81786429 379.10725888 165.59681083 384.6875 168.375 C391.04293418 171.53912822 397.39760801 174.70476779 403.75 177.875 C404.51835175 178.25841553 405.28670349 178.64183105 406.07833862 179.03686523 C414.86335773 183.42372222 423.61003308 187.86208724 432.27197266 192.48828125 C440.31803718 196.75856888 448.47493892 200.8080346 456.625 204.875 C457.77547318 205.44915649 457.77547318 205.44915649 458.94918823 206.03491211 C464.52721591 208.81777272 470.10716725 211.59676521 475.6875 214.375 C482.04293418 217.53912822 488.39760801 220.70476779 494.75 223.875 C495.51835175 224.25841553 496.28670349 224.64183105 497.07833862 225.03686523 C505.86335773 229.42372222 514.61003308 233.86208724 523.27197266 238.48828125 C531.31803718 242.75856888 539.47493892 246.8080346 547.625 250.875 C548.77547318 251.44915649 548.77547318 251.44915649 549.94918823 252.03491211 C555.52721591 254.81777272 561.10716725 257.59676521 566.6875 260.375 C573.04293418 263.53912822 579.39760801 266.70476779 585.75 269.875 C586.51835175 270.25841553 587.28670349 270.64183105 588.07833862 271.03686523 C596.86335773 275.42372222 605.61003308 279.86208724 614.27197266 284.48828125 C622.31803718 288.75856888 630.47493892 292.8080346 638.625 296.875 C639.39198212 297.257771 640.15896423 297.64054199 640.94918823 298.03491211 C646.52721591 300.81777272 652.10716725 303.59676521 657.6875 306.375 C664.04293418 309.53912822 670.39760801 312.70476779 676.75 315.875 C677.51835175 316.25841553 678.28670349 316.64183105 679.07833862 317.03686523 C687.86335773 321.42372222 696.61003308 325.86208724 705.27197266 330.48828125 C713.31803718 334.75856888 721.47493892 338.8080346 729.625 342.875 C730.39198212 343.257771 731.15896423 343.64054199 731.94918823 344.03491211 C737.52721591 346.81777272 743.10716725 349.59676521 748.6875 352.375 C755.04293418 355.53912822 761.39760801 358.70476779 767.75 361.875 C768.51835175 362.25841553 769.28670349 362.64183105 770.07833862 363.03686523 C778.86335773 367.42372222 787.61003308 371.86208724 796.27197266 376.48828125 C804.31803718 380.75856888 812.47493892 384.8080346 820.625 388.875 C821.39198212 389.257771 822.15896423 389.64054199 822.94918823 390.03491211 C828.52721591 392.81777272 834.10716725 395.59676521 839.6875 398.375 C846.04293423 401.53912825 852.39757589 404.7048321 858.75 407.875 C859.89557971 408.4466026 859.89557971 408.4466026 861.06430244 409.02975273 C870.1710952 413.576802 879.23898788 418.1795943 888.22105408 422.96961975 C893.94115067 426.01139126 899.72604043 428.9096242 905.53515625 431.77734375 C906.45557709 432.23243317 907.37599792 432.68752258 908.3243103 433.15640259 C912.07185552 435.00777119 915.82019534 436.85736267 919.57446289 438.69506836 C936.62572211 447.05155917 953.42883678 455.66767934 967.6875 468.375 C968.52410156 469.10332031 969.36070313 469.83164062 970.22265625 470.58203125 C972.74714801 472.80998302 975.22398608 475.07989801 977.6875 477.375 C978.48800781 478.10976563 979.28851562 478.84453125 980.11328125 479.6015625 C998.87698414 497.49740672 1011.32106029 520.69199768 1018.4375 545.4375 C1018.63641846 546.12070312 1018.83533691 546.80390625 1019.0402832 547.5078125 C1022.29006419 559.44180015 1022.98301258 571.48081698 1022.94197559 583.79067612 C1022.94437098 585.30232408 1022.94763971 586.81397086 1022.95169219 588.32561529 C1022.96025982 592.45764179 1022.95650769 596.58957671 1022.95063647 600.72160448 C1022.94644848 605.22536903 1022.9538781 609.72911741 1022.95978898 614.23287797 C1022.96853709 622.11925631 1022.96986803 630.00560868 1022.96628571 637.89199066 C1022.96097261 649.61963571 1022.96708012 661.34725568 1022.97536864 673.074898 C1022.99060356 695.2402809 1022.99231423 717.40565237 1022.98984561 739.57103941 C1022.98801246 756.68821235 1022.98977303 773.80538154 1022.99407005 790.92255402 C1022.99467246 793.38237626 1022.99527365 795.8421985 1022.99587366 798.30202074 C1022.99678092 802.00880895 1022.99768958 805.71559715 1022.99860601 809.42238535 C1023.00703482 843.88341612 1023.01137173 878.34444549 1023.00719929 912.80547714 C1023.00704291 914.10441602 1023.00688654 915.40335489 1023.00672542 916.74165555 C1023.00591965 923.32508402 1023.00507388 929.90851248 1023.00421212 936.49194095 C1023.00404103 937.79941354 1023.00386994 939.10688614 1023.00369367 940.45397912 C1023.00334702 943.09800573 1023.00299849 945.74203234 1023.00264808 948.38605895 C1022.99729087 989.52723788 1023.00522162 1030.66839538 1023.02368164 1071.80957031 C1023.04440109 1118.04031341 1023.05512447 1164.27104324 1023.05110615 1210.50179124 C1023.05071081 1215.4319218 1023.05034927 1220.36205236 1023.05000877 1225.29218292 C1023.04987268 1227.11304463 1023.04987268 1227.11304463 1023.04973383 1228.97069142 C1023.04856824 1247.28958671 1023.05521325 1265.60846859 1023.06582069 1283.92736053 C1023.07787326 1304.7631088 1023.07943097 1325.59882754 1023.06703053 1346.43457624 C1023.06040361 1358.09081602 1023.06202918 1369.74698516 1023.07561904 1381.40321928 C1023.08387018 1389.19542191 1023.08115733 1396.9875717 1023.06964377 1404.77977005 C1023.06339401 1409.21534851 1023.06176932 1413.65078926 1023.07350711 1418.08635971 C1023.18180252 1462.04541919 1014.27899498 1499.05895104 983.67578125 1532.19921875 C982.08043179 1533.94501374 980.58814268 1535.70788102 979.125 1537.5625 C959.29067758 1560.44825664 928.64763404 1573.02319906 902.14624023 1586.12744141 C896.49102215 1588.93257744 890.87391577 1591.7908567 885.29750061 1594.74902344 C875.5024883 1599.94419072 865.62936687 1604.96630864 855.70291138 1609.90487671 C853.03196296 1611.23378998 850.36239808 1612.56544972 847.69311523 1613.89770508 C841.07148591 1617.20194279 834.447646 1620.50173915 827.82385254 1623.80163574 C822.19282194 1626.60716993 816.56267941 1629.41447274 810.93362427 1632.22396851 C808.34322829 1633.51599982 805.75161267 1634.80555882 803.15991211 1636.0949707 C794.3003068 1640.51125718 785.50421346 1645.02803403 776.75604248 1649.66108704 C769.04331941 1653.73636237 761.25382608 1657.64988831 753.44369507 1661.53448486 C750.90716153 1662.79617866 748.37202048 1664.06063571 745.8371582 1665.32568359 C739.54943442 1668.46297552 733.25949739 1671.59581962 726.96960449 1674.72875977 C721.62041065 1677.39336742 716.27210983 1680.05975312 710.92489624 1682.72833252 C708.46745681 1683.95389055 706.00879681 1685.17697229 703.55004883 1686.39990234 C695.71500291 1690.30483696 687.92429461 1694.27853201 680.1875 1698.375 C671.66698548 1702.88643099 663.07582628 1707.24104252 654.44369507 1711.53448486 C651.90716153 1712.79617866 649.37202048 1714.06063571 646.8371582 1715.32568359 C640.54943442 1718.46297552 634.25949739 1721.59581962 627.96960449 1724.72875977 C622.62041065 1727.39336742 617.27210983 1730.05975312 611.92489624 1732.72833252 C609.46745681 1733.95389055 607.00879681 1735.17697229 604.55004883 1736.39990234 C596.71500291 1740.30483696 588.92429461 1744.27853201 581.1875 1748.375 C572.66698548 1752.88643099 564.07582628 1757.24104252 555.44369507 1761.53448486 C552.90716153 1762.79617866 550.37202048 1764.06063571 547.8371582 1765.32568359 C541.54943442 1768.46297552 535.25949739 1771.59581962 528.96960449 1774.72875977 C523.62041065 1777.39336742 518.27210983 1780.05975312 512.92489624 1782.72833252 C510.46745681 1783.95389055 508.00879681 1785.17697229 505.55004883 1786.39990234 C497.71500291 1790.30483696 489.92429461 1794.27853201 482.1875 1798.375 C473.66698548 1802.88643099 465.07582628 1807.24104252 456.44369507 1811.53448486 C453.90716153 1812.79617866 451.37202048 1814.06063571 448.8371582 1815.32568359 C442.54943442 1818.46297552 436.25949739 1821.59581962 429.96960449 1824.72875977 C424.62041065 1827.39336742 419.27210983 1830.05975312 413.92489624 1832.72833252 C411.46745681 1833.95389055 409.00879681 1835.17697229 406.55004883 1836.39990234 C398.72410838 1840.30029828 390.94244792 1844.26924906 383.21484375 1848.36132812 C374.56345064 1852.94228991 365.83787113 1857.35975263 357.07330322 1861.71968079 C354.46956231 1863.01498445 351.86720929 1864.31304275 349.26513672 1865.61169434 C342.81046013 1868.83245908 336.35357167 1872.04877932 329.89672852 1875.26519775 C324.40661634 1878.00026876 318.91739464 1880.73711297 313.42926025 1883.47615051 C310.90534253 1884.73494513 308.38020471 1885.9912655 305.85498047 1887.24743652 C297.10442065 1891.60902107 288.41897131 1896.07437607 279.77839661 1900.64990997 C272.05804467 1904.7285729 264.2612838 1908.64617899 256.44369507 1912.53448486 C253.90716153 1913.79617866 251.37202048 1915.06063571 248.8371582 1916.32568359 C242.54943442 1919.46297552 236.25949739 1922.59581962 229.96960449 1925.72875977 C224.62041065 1928.39336742 219.27210983 1931.05975312 213.92489624 1933.72833252 C211.46745681 1934.95389055 209.00879681 1936.17697229 206.55004883 1937.39990234 C197.97629003 1941.67289246 189.46668017 1946.04888693 181.0001955 1950.53056908 C165.23099195 1958.86100446 149.24025453 1966.77116334 133.30151367 1974.77050781 C129.01922293 1976.92056598 124.74045137 1979.07740007 120.46459961 1981.24023438 C115.22853895 1983.88869122 109.98643832 1986.52482498 104.74007607 1989.15281296 C102.7716885 1990.14122257 100.80531668 1991.13365937 98.84123802 1992.13060379 C82.10845704 2000.61723824 64.7359211 2008.48407266 46.25 2012.25 C45.42564453 2012.435625 44.60128906 2012.62125 43.75195312 2012.8125 C29.60733797 2015.87662716 15.73013942 2016.78533735 1.3125 2016.75 C0.4352124 2016.74912384 -0.4420752 2016.74824768 -1.34594727 2016.74734497 C-31.22023304 2016.64929749 -59.43811912 2010.6095443 -86.3125 1997.375 C-87.3648584 1996.8598584 -88.4172168 1996.3447168 -89.50146484 1995.81396484 C-101.60099373 1989.8720348 -113.63311039 1983.80233851 -125.53686523 1977.47607422 C-133.75570621 1973.11526921 -142.03557926 1968.87413789 -150.3125 1964.625 C-164.25034767 1957.46774185 -178.17066904 1950.27799733 -192.07519531 1943.05615234 C-197.6115106 1940.18110958 -203.14946857 1937.30923533 -208.6875 1934.4375 C-209.79818848 1933.86153076 -210.90887695 1933.28556152 -212.05322266 1932.69213867 C-225.13454546 1925.90989462 -238.22358427 1919.14257429 -251.3125 1912.375 C-256.1875951 1909.85435055 -261.06262874 1907.33358234 -265.9375 1904.8125 C-266.53866638 1904.50160431 -267.13983276 1904.19070862 -267.75921631 1903.87039185 C-277.56081135 1898.80115151 -287.35781868 1893.72309471 -297.15332031 1888.64208984 C-304.72246036 1884.71649363 -312.29406258 1880.79568213 -319.8677063 1876.87878418 C-321.68399609 1875.93931239 -323.50009675 1874.99947585 -325.31616211 1874.05957031 C-331.50227817 1870.85857538 -337.69177459 1867.66434714 -343.88671875 1864.48046875 C-351.04098375 1860.80215992 -358.18176645 1857.09874512 -365.3125 1853.375 C-366.3236084 1852.8485791 -367.3347168 1852.3221582 -368.37646484 1851.77978516 C-391.71940903 1839.56118195 -391.71940903 1839.56118195 -395.3125 1832.375 C-395.6875 1829 -395.6875 1829 -395.3125 1825.375 C-389.48990465 1818.58197209 -377.65719611 1816.42663022 -369.3828125 1813.87109375 C-367.28041593 1813.21249806 -365.1782093 1812.55329576 -363.07617188 1811.89355469 C-361.44893188 1811.38423401 -361.44893188 1811.38423401 -359.78881836 1810.86462402 C-325.1571216 1799.99223405 -292.39294224 1786.76937314 -260.04980469 1770.20727539 C-251.96561054 1766.09016888 -244.22408058 1762.18141901 -235.06323242 1765.08886719 C-228.51694021 1767.777266 -222.18691896 1770.80261292 -215.875 1774 C-214.81788818 1774.53214111 -213.76077637 1775.06428223 -212.67163086 1775.61254883 C-205.79748256 1779.08465015 -198.96384262 1782.6271288 -192.16137695 1786.23730469 C-184.16319673 1790.4758687 -176.11254507 1794.61111984 -168.0625 1798.75 C-157.59204689 1804.13479607 -147.13277345 1809.53925354 -136.69873047 1814.99438477 C-120.09700171 1823.67316508 -103.45259259 1832.27007016 -86.8125 1840.875 C-77.35222984 1845.76709784 -67.89310053 1850.66137985 -58.4375 1855.5625 C-57.33059814 1856.13621338 -56.22369629 1856.70992676 -55.08325195 1857.30102539 C-48.70185577 1860.61071783 -42.32725728 1863.93308879 -35.95776367 1867.265625 C-25.06664939 1872.96303652 -25.06664939 1872.96303652 -14.125 1878.5625 C-12.55685547 1879.35720703 -12.55685547 1879.35720703 -10.95703125 1880.16796875 C-7.29101179 1881.84123317 -4.14144627 1882.53720882 -0.125 1882.625 C0.56980469 1882.65078125 1.26460937 1882.6765625 1.98046875 1882.703125 C11.86530284 1881.50496329 20.88276712 1875.97956588 29.6484375 1871.55859375 C31.2040799 1870.77923903 32.75996236 1870.00036334 34.31607056 1869.22193909 C37.57405073 1867.59065488 40.83003808 1865.95548468 44.08447266 1864.31713867 C48.19709827 1862.24681334 52.31306453 1860.18324813 56.43041039 1858.12232876 C60.42100533 1856.12441266 64.40974496 1854.12280435 68.3984375 1852.12109375 C69.4979178 1851.56994306 69.4979178 1851.56994306 70.61960983 1851.007658 C78.82429165 1846.89173588 86.9868891 1842.70796523 95.10009766 1838.41430664 C103.65051656 1833.8915953 112.27078956 1829.52307517 120.93130493 1825.21551514 C123.46783847 1823.95382134 126.00297952 1822.68936429 128.5378418 1821.42431641 C134.82556558 1818.28702448 141.11550261 1815.15418038 147.40539551 1812.02124023 C152.75458935 1809.35663258 158.10289017 1806.69024688 163.45010376 1804.02166748 C165.90754319 1802.79610945 168.36620319 1801.57302771 170.82495117 1800.35009766 C178.65089162 1796.44970172 186.43255208 1792.48075094 194.16015625 1788.38867188 C202.81154936 1783.80771009 211.53712887 1779.39024737 220.30169678 1775.03031921 C222.90543769 1773.73501555 225.50779071 1772.43695725 228.10986328 1771.13830566 C234.56453987 1767.91754092 241.02142833 1764.70122068 247.47827148 1761.48480225 C252.96838366 1758.74973124 258.45760536 1756.01288703 263.94573975 1753.27384949 C266.46965747 1752.01505487 268.99479529 1750.7587345 271.52001953 1749.50256348 C280.28040383 1745.13608146 288.97575134 1740.6658183 297.62612915 1736.08532715 C305.21464121 1732.07607353 312.87649092 1728.22221337 320.56091309 1724.40071106 C323.03023939 1723.17262741 325.49816835 1721.9417714 327.96582031 1720.71032715 C334.08659122 1717.65650788 340.20957681 1714.60713993 346.33251953 1711.55767822 C351.54079512 1708.96353411 356.74817502 1706.36760683 361.95446777 1703.76948547 C364.34542886 1702.57716392 366.73761103 1701.38732079 369.12988281 1700.19763184 C376.85423989 1696.34820257 384.53271833 1692.42703245 392.16015625 1688.38867188 C400.68988307 1683.87288773 409.29006164 1679.51348964 417.93130493 1675.21551514 C420.46783847 1673.95382134 423.00297952 1672.68936429 425.5378418 1671.42431641 C431.82556558 1668.28702448 438.11550261 1665.15418038 444.40539551 1662.02124023 C449.75458935 1659.35663258 455.10289017 1656.69024688 460.45010376 1654.02166748 C462.90754319 1652.79610945 465.36620319 1651.57302771 467.82495117 1650.35009766 C475.64178621 1646.45424037 483.41439912 1642.49003458 491.1328125 1638.40234375 C499.9150776 1633.75184717 508.77508249 1629.27152408 517.67208862 1624.84512329 C520.34303704 1623.51621002 523.01260192 1622.18455028 525.68188477 1620.85229492 C532.30351409 1617.54805721 538.927354 1614.24826085 545.55114746 1610.94836426 C551.18217806 1608.14283007 556.81232059 1605.33552726 562.44137573 1602.52603149 C565.03177171 1601.23400018 567.62338733 1599.94444118 570.21508789 1598.6550293 C579.0746932 1594.23874282 587.87078654 1589.72196597 596.61895752 1585.08891296 C604.33168059 1581.01363763 612.12117392 1577.10011169 619.93130493 1573.21551514 C622.46783847 1571.95382134 625.00297952 1570.68936429 627.5378418 1569.42431641 C633.82556558 1566.28702448 640.11550261 1563.15418038 646.40539551 1560.02124023 C651.75458935 1557.35663258 657.10289017 1554.69024688 662.45010376 1552.02166748 C664.90754319 1550.79610945 667.36620319 1549.57302771 669.82495117 1548.35009766 C677.65089162 1544.44970172 685.43255208 1540.48075094 693.16015625 1536.38867188 C701.81154936 1531.80771009 710.53712887 1527.39024737 719.30169678 1523.03031921 C721.90543769 1521.73501555 724.50779071 1520.43695725 727.10986328 1519.13830566 C733.56453987 1515.91754092 740.02142833 1512.70122068 746.47827148 1509.48480225 C751.96838366 1506.74973124 757.45760536 1504.01288703 762.94573975 1501.27384949 C765.46965747 1500.01505487 767.99479529 1498.7587345 770.52001953 1497.50256348 C779.39046268 1493.08113844 788.19453285 1488.55300846 796.95390797 1483.91540813 C803.6035538 1480.40107944 810.31641886 1477.0405872 817.07421875 1473.73828125 C818.83583679 1472.86942669 820.59744756 1472.00055703 822.35863209 1471.13082409 C826.58743136 1469.0425665 830.81795203 1466.95802682 835.05639648 1464.8894043 C838.63144847 1463.14399989 842.19659999 1461.37889007 845.76171875 1459.61328125 C846.84200851 1459.09018875 847.92229828 1458.56709625 849.0353241 1458.02815247 C857.70292035 1453.71000616 864.72421647 1449.49905753 868.6875 1440.375 C869.13082351 1437.32281407 869.13082351 1437.32281407 869.06584883 1434.09260905 C869.07788334 1432.21559929 869.07788334 1432.21559929 869.09016097 1430.30067015 C869.0839089 1428.91712353 869.0773818 1427.53357813 869.07061005 1426.15003395 C869.07434687 1424.67026299 869.07939615 1423.19049486 869.08563888 1421.71073234 C869.09901694 1417.62995515 869.09364991 1413.54938228 869.08530539 1409.46859956 C869.07951347 1405.03447397 869.0910376 1400.60038834 869.10036707 1396.16627347 C869.11430322 1388.39006693 869.11700623 1380.61391856 869.11240768 1372.8377018 C869.10558722 1361.27428665 869.11581829 1349.7109306 869.12936524 1338.14752366 C869.15430606 1316.29592451 869.15879278 1294.44434974 869.15689927 1272.59273864 C869.15552748 1255.72175865 869.15933758 1238.85078714 869.16682434 1221.97980881 C869.16787466 1219.55802623 869.16892228 1217.13624366 869.1699672 1214.71446108 C869.17074622 1212.91128504 869.17074622 1212.91128504 869.17154097 1211.07168119 C869.17206112 1209.86739381 869.17258126 1208.66310643 869.17311716 1207.42232549 C869.17364115 1206.21605916 869.17416514 1205.00979283 869.17470502 1203.76697297 C869.18929341 1169.82822318 869.19756853 1135.88947651 869.19295502 1101.95072365 C869.19269708 1100.03060923 869.19269708 1100.03060923 869.19243394 1098.07170461 C869.19154502 1091.58341814 869.19060021 1085.09513168 869.18963593 1078.60684521 C869.1894449 1077.31819602 869.18925387 1076.02954683 869.18905704 1074.70184766 C869.18866995 1072.09588472 869.18827963 1069.48992177 869.18788607 1066.88395883 C869.18191501 1026.32821487 869.19735692 985.77252797 869.22949219 945.21679688 C869.26554595 899.67692164 869.284905 854.13708258 869.27995348 808.59719217 C869.27948348 803.74406902 869.27907324 798.89094588 869.27870178 794.03782272 C869.2785482 792.24531255 869.2785482 792.24531255 869.27839152 790.41659006 C869.2771953 772.35501758 869.28918202 754.29348411 869.30784607 736.23192215 C869.32905478 715.69760946 869.3329619 695.16337874 869.31354648 674.62906243 C869.30319786 663.1306823 869.30674727 651.63250194 869.33007733 640.13413975 C869.34427165 632.4596398 869.34039032 624.78528824 869.32163157 617.11079841 C869.31144672 612.73403317 869.30924183 608.35765776 869.32895225 603.98091634 C869.34671847 600.00010986 869.34152368 596.02002262 869.31792386 592.03925249 C869.31346958 590.60728964 869.31741135 589.17527008 869.33073221 587.74336226 C869.40009101 579.74683608 869.24145791 573.50040405 863.6875 567.375 C856.58718116 560.52419695 846.82465413 556.70211721 838.07421875 552.390625 C836.3371682 551.52711415 834.60050625 550.66282118 832.86421204 549.79779053 C828.29981439 547.52602164 823.73088096 545.26353668 819.16070557 543.00341797 C811.88686316 539.40418796 804.62032242 535.79023423 797.35321999 532.17742157 C794.8475037 530.93322108 792.34004394 529.69260107 789.8321991 528.45269775 C781.11367643 524.13395422 772.46681631 519.7037961 763.86961651 515.14838791 C755.75357047 510.85869488 747.55093681 506.74923799 739.33251953 502.65992737 C736.59436349 501.29740472 733.85758685 499.93214335 731.12109375 498.56628418 C725.31104118 495.66688959 719.49940286 492.77068348 713.6875 489.875 C706.93662168 486.51148769 700.18645611 483.14655991 693.43798828 479.7782135 C690.78111408 478.45294538 688.1230207 477.13014775 685.46484375 475.80749512 C676.51584299 471.34631242 667.62888373 466.78793879 658.79273987 462.10726166 C650.82398065 457.89654501 642.77192371 453.85958411 634.70291138 449.84512329 C632.03196296 448.51621002 629.36239808 447.18455028 626.69311523 445.85229492 C621.02572309 443.024228 615.35674448 440.19935143 609.6875 437.375 C603.101832 434.09409707 596.51687913 430.81177417 589.93362427 427.52603149 C587.34322829 426.23400018 584.75161267 424.94444118 582.15991211 423.6550293 C573.31995557 419.24853839 564.54365568 414.7415819 555.81509399 410.11843872 C547.8386958 405.90435125 539.77938227 401.86329486 531.70291138 397.84512329 C529.03196296 396.51621002 526.36239808 395.18455028 523.69311523 393.85229492 C518.02572309 391.024228 512.35674448 388.19935143 506.6875 385.375 C500.101832 382.09409707 493.51687913 378.81177417 486.93362427 375.52603149 C484.34322829 374.23400018 481.75161267 372.94444118 479.15991211 371.6550293 C471.13080827 367.65272813 463.14274032 363.58823276 455.21484375 359.38867188 C446.3201638 354.67730017 437.34373914 350.14371966 428.33251953 345.65992737 C425.59436349 344.29740472 422.85758685 342.93214335 420.12109375 341.56628418 C414.31104118 338.66688959 408.49940286 335.77068348 402.6875 332.875 C395.93662168 329.51148769 389.18645611 326.14655991 382.43798828 322.7782135 C379.78111408 321.45294538 377.1230207 320.13014775 374.46484375 318.80749512 C365.51584299 314.34631242 356.62888373 309.78793879 347.79273987 305.10726166 C339.82398065 300.89654501 331.77192371 296.85958411 323.70291138 292.84512329 C321.03196296 291.51621002 318.36239808 290.18455028 315.69311523 288.85229492 C310.02572309 286.024228 304.35674448 283.19935143 298.6875 280.375 C292.101832 277.09409707 285.51687913 273.81177417 278.93362427 270.52603149 C276.34322829 269.23400018 273.75161267 267.94444118 271.15991211 266.6550293 C263.13080827 262.65272813 255.14274032 258.58823276 247.21484375 254.38867188 C238.3201638 249.67730017 229.34373914 245.14371966 220.33251953 240.65992737 C217.59436349 239.29740472 214.85758685 237.93214335 212.12109375 236.56628418 C206.31104118 233.66688959 200.49940286 230.77068348 194.6875 227.875 C187.93662168 224.51148769 181.18645611 221.14655991 174.43798828 217.7782135 C171.78111408 216.45294538 169.1230207 215.13014775 166.46484375 213.80749512 C157.51584299 209.34631242 148.62888373 204.78793879 139.79273987 200.10726166 C131.82398065 195.89654501 123.77192371 191.85958411 115.70291138 187.84512329 C113.03196296 186.51621002 110.36239808 185.18455028 107.69311523 183.85229492 C102.02572309 181.024228 96.35674448 178.19935143 90.6875 175.375 C84.101832 172.09409707 77.51687913 168.81177417 70.93362427 165.52603149 C68.34322829 164.23400018 65.75161267 162.94444118 63.15991211 161.6550293 C52.57804505 156.38028866 42.09039442 150.94537558 31.64390564 145.4076786 C27.35619959 143.14443513 23.04067378 140.9466169 18.6875 138.8125 C17.45193359 138.17731445 17.45193359 138.17731445 16.19140625 137.52929688 C7.46157209 133.27333248 -0.12325876 132.32301394 -9.39602661 135.27851868 C-15.34179275 137.51389704 -20.9629727 140.44775128 -26.62109375 143.31640625 C-27.99585525 144.00625813 -29.37094892 144.6954484 -30.74635315 145.38401794 C-33.62233931 146.82581377 -36.49567991 148.27269934 -39.36694336 149.72387695 C-42.98755913 151.55378706 -46.61230692 153.3753029 -50.23880577 155.1935215 C-67.99383107 164.08844264 -67.99383107 164.08844264 -85.59765625 173.27734375 C-94.40304789 177.96686726 -103.32428338 182.42038342 -112.25 186.875 C-113.01667055 187.25762938 -113.7833411 187.64025875 -114.57324409 188.03448296 C-120.96004912 191.22082735 -127.3494525 194.40194984 -133.7388916 197.58300781 C-139.28542491 200.34467435 -144.83101822 203.10821456 -150.375 205.875 C-151.52702911 206.44987404 -151.52702911 206.44987404 -152.70233154 207.03636169 C-161.51034723 211.43469924 -170.28013697 215.88465015 -178.96508789 220.52233887 C-186.84455198 224.70482606 -194.83083887 228.67354872 -202.8125 232.65625 C-203.55750763 233.02803375 -204.30251526 233.3998175 -205.07009888 233.78286743 C-211.26699226 236.87427437 -217.4664793 239.96046765 -223.66601562 243.04656982 C-229.04934357 245.72662697 -234.431728 248.40856461 -239.8125 251.09375 C-240.93230759 251.65251328 -240.93230759 251.65251328 -242.07473755 252.2225647 C-250.00916032 256.18452408 -257.92634127 260.16598386 -265.75 264.34375 C-274.50212358 269.01647667 -283.37320986 273.44539302 -292.25 277.875 C-293.01689148 278.25772568 -293.78378296 278.64045135 -294.57391357 279.03477478 C-300.96049598 282.22102092 -307.34967009 285.40205817 -313.7388916 288.58300781 C-319.28542491 291.34467435 -324.83101822 294.10821456 -330.375 296.875 C-331.14301941 297.25824936 -331.91103882 297.64149872 -332.70233154 298.03636169 C-341.51034723 302.43469924 -350.28013697 306.88465015 -358.96508789 311.52233887 C-366.84455198 315.70482606 -374.83083887 319.67354872 -382.8125 323.65625 C-383.55750763 324.02803375 -384.30251526 324.3998175 -385.07009888 324.78286743 C-391.26699226 327.87427437 -397.4664793 330.96046765 -403.66601562 334.04656982 C-409.04934357 336.72662697 -414.431728 339.40856461 -419.8125 342.09375 C-420.55903839 342.46625885 -421.30557678 342.8387677 -422.07473755 343.2225647 C-430.00916032 347.18452408 -437.92634127 351.16598386 -445.75 355.34375 C-454.50212358 360.01647667 -463.37320986 364.44539302 -472.25 368.875 C-473.01689148 369.25772568 -473.78378296 369.64045135 -474.57391357 370.03477478 C-480.96049598 373.22102092 -487.34967009 376.40205817 -493.7388916 379.58300781 C-499.28542491 382.34467435 -504.83101822 385.10821456 -510.375 387.875 C-511.14301941 388.25824936 -511.91103882 388.64149872 -512.70233154 389.03636169 C-521.51034723 393.43469924 -530.28013697 397.88465015 -538.96508789 402.52233887 C-546.84455198 406.70482606 -554.83083887 410.67354872 -562.8125 414.65625 C-563.55750763 415.02803375 -564.30251526 415.3998175 -565.07009888 415.78286743 C-571.26699226 418.87427437 -577.4664793 421.96046765 -583.66601562 425.04656982 C-589.04934357 427.72662697 -594.431728 430.40856461 -599.8125 433.09375 C-600.55903839 433.46625885 -601.30557678 433.8387677 -602.07473755 434.2225647 C-610.00916032 438.18452408 -617.92634127 442.16598386 -625.75 446.34375 C-634.50212358 451.01647667 -643.37320986 455.44539302 -652.25 459.875 C-653.01689148 460.25772568 -653.78378296 460.64045135 -654.57391357 461.03477478 C-660.96049598 464.22102092 -667.34967009 467.40205817 -673.7388916 470.58300781 C-679.28542491 473.34467435 -684.83101822 476.10821456 -690.375 478.875 C-691.14301941 479.25824936 -691.91103882 479.64149872 -692.70233154 480.03636169 C-701.51034723 484.43469924 -710.28013697 488.88465015 -718.96508789 493.52233887 C-726.84455198 497.70482606 -734.83083887 501.67354872 -742.8125 505.65625 C-743.55750763 506.02803375 -744.30251526 506.3998175 -745.07009888 506.78286743 C-751.26699226 509.87427437 -757.4664793 512.96046765 -763.66601562 516.04656982 C-769.0493436 518.72662699 -774.43169984 521.40862102 -779.8125 524.09375 C-780.92523505 524.64893027 -780.92523505 524.64893027 -782.0604496 525.21532631 C-791.03115367 529.69424417 -799.9604628 534.23358401 -808.8087616 538.95097351 C-814.5363916 541.99573626 -820.32808302 544.89845801 -826.14453125 547.76953125 C-827.04895966 548.21662445 -827.95338806 548.66371765 -828.88522339 549.12435913 C-832.57410779 550.94625666 -836.26397559 552.76599929 -839.95922852 554.57495117 C-842.71216743 555.9241697 -845.45990587 557.2835234 -848.20703125 558.64453125 C-849.03515823 559.04670364 -849.86328522 559.44887604 -850.71650696 559.86323547 C-857.61175285 563.29523835 -863.0181172 566.55599185 -866.48254686 573.80410194 C-868.25769726 579.30288312 -867.85818391 585.10955885 -867.81865788 590.83044434 C-867.8231371 592.31084321 -867.82936694 593.79123764 -867.83718321 595.27162266 C-867.85359788 599.34487095 -867.84510221 603.41774554 -867.83257158 607.49099362 C-867.82333375 611.92037939 -867.83724691 616.34970216 -867.84821075 620.77907562 C-867.86420887 628.54386111 -867.86528324 636.30853824 -867.85661316 644.07333374 C-867.84375512 655.61972122 -867.85369408 667.16601052 -867.86811271 678.71239209 C-867.89306747 699.33262496 -867.89493126 719.95281195 -867.88683859 740.57305551 C-867.87977112 758.61796414 -867.87970322 776.66285495 -867.88670158 794.70776367 C-867.88761291 797.12646914 -867.88852367 799.5451746 -867.88943387 801.96388006 C-867.89081697 805.60845108 -867.89220806 809.2530221 -867.89362001 812.89759311 C-867.90660424 846.78919299 -867.9117107 880.68078689 -867.9000864 914.5723877 C-867.89964843 915.85044908 -867.89921046 917.12851047 -867.89875922 918.445301 C-867.89515223 928.82467729 -867.89131754 939.20405349 -867.88746829 949.58342969 C-867.87261805 990.07908229 -867.88140283 1030.57466746 -867.90942383 1071.0703125 C-867.9408318 1116.54794511 -867.95582822 1162.0255378 -867.94562382 1207.50318146 C-867.944587 1212.34953307 -867.94359978 1217.1958847 -867.9426403 1222.04223633 C-867.94226697 1223.83223227 -867.94226697 1223.83223227 -867.9418861 1225.65838975 C-867.93844209 1243.6937421 -867.94776713 1261.72905927 -867.96341133 1279.7644043 C-867.98115505 1300.2675641 -867.98134883 1320.77063809 -867.95805968 1341.27379417 C-867.94553191 1352.75440718 -867.94685839 1364.23482318 -867.96794054 1375.71542475 C-867.98063082 1383.37801626 -867.97523748 1391.0404555 -867.95495573 1398.70303038 C-867.94389963 1403.0729543 -867.94081468 1407.44248992 -867.95963103 1411.81239605 C-867.97658171 1415.7869771 -867.97057454 1419.76083336 -867.94616519 1423.73536956 C-867.94141773 1425.16507068 -867.94506285 1426.59483029 -867.95808421 1428.02447999 C-868.02620339 1436.0596453 -867.80557402 1442.17356986 -862.3125 1448.375 C-857.82395458 1452.66919603 -851.77036714 1455.20124724 -846.24731445 1457.93408203 C-844.81083139 1458.64859952 -843.37435932 1459.36313912 -841.93789673 1460.07769775 C-841.1826685 1460.45264626 -840.42744026 1460.82759476 -839.64932632 1461.21390533 C-835.66976497 1463.19122278 -831.69499928 1465.17814143 -827.71948242 1467.16357422 C-826.00304924 1468.02021803 -824.28659259 1468.87681482 -822.57011414 1469.73336792 C-815.89986229 1473.06234449 -809.23062738 1476.39335678 -802.56150341 1479.72459221 C-797.52973291 1482.23787006 -792.49758871 1484.75039371 -787.46459961 1487.26123047 C-782.53688569 1489.71959011 -777.61019832 1492.17999634 -772.68416786 1494.64172745 C-770.83299398 1495.56640506 -768.98147413 1496.49039048 -767.1295681 1497.41360092 C-757.12684733 1502.40072323 -747.17873883 1507.47047449 -737.30143261 1512.70178795 C-729.73740726 1516.6992696 -722.09919752 1520.53987689 -714.43908691 1524.34928894 C-711.96976061 1525.57737259 -709.50183165 1526.8082286 -707.03417969 1528.03967285 C-701.79476911 1530.65375745 -696.55376973 1533.26464546 -691.3125 1535.875 C-685.2224624 1538.90807369 -679.1331479 1541.94258234 -673.04553223 1544.98051453 C-670.65457114 1546.17283608 -668.26238897 1547.36267921 -665.87011719 1548.55236816 C-657.11528763 1552.91540883 -648.42174803 1557.37972259 -639.78192139 1561.96675873 C-621.22976289 1571.80839556 -602.19825796 1579.10828455 -581.8125 1584.25 C-580.11444214 1584.67925781 -580.11444214 1584.67925781 -578.38208008 1585.1171875 C-542.42535246 1593.83587526 -501.80766302 1592.85069011 -469.3125 1573.4375 C-446.55433166 1558.56045395 -432.02068709 1539.52546496 -425.07421875 1513.17578125 C-423.19323727 1503.79016597 -423.16895558 1494.41561768 -423.18500805 1484.87369251 C-423.1837723 1483.41283626 -423.18209766 1481.95198032 -423.18002674 1480.49112502 C-423.1755982 1476.48156999 -423.17734765 1472.47203797 -423.18010005 1468.46248233 C-423.18197909 1464.09857531 -423.17802305 1459.73467297 -423.17478687 1455.3707673 C-423.16989792 1447.72406907 -423.16863992 1440.07737702 -423.16975212 1432.43067741 C-423.17136313 1421.05995458 -423.16719754 1409.68923906 -423.16167164 1398.31851771 C-423.1530228 1380.36204792 -423.14765956 1362.4055791 -423.14447013 1344.44910758 C-423.13932788 1315.95345713 -423.12386278 1287.45781919 -423.10489365 1258.96217491 C-423.10087226 1252.8981622 -423.09695135 1246.83414943 -423.09302729 1240.77013665 C-423.09224464 1239.56134081 -423.09146198 1238.35254496 -423.09065561 1237.10711894 C-423.08907004 1234.65763743 -423.08748521 1232.20815591 -423.08590112 1229.75867439 C-423.08430985 1227.30017604 -423.0827156 1224.84167768 -423.08111839 1222.38317933 C-423.06229092 1193.39502085 -423.04520229 1164.40686153 -423.02954102 1135.41870117 C-423.02850764 1133.51615074 -423.02850764 1133.51615074 -423.02745338 1131.57516494 C-423.00517523 1090.41588453 -422.99334838 1049.25660776 -422.98587446 1008.09732229 C-422.97811565 965.78788943 -422.95708253 923.4784814 -422.92033185 881.16906341 C-422.91515799 875.19825682 -422.91015069 869.22745011 -422.90525246 863.2566433 C-422.9042855 862.0815192 -422.90331854 860.90639511 -422.90232228 859.69566119 C-422.88716202 840.7606049 -422.88629129 821.82557339 -422.89090959 802.8905127 C-422.8952861 783.87494825 -422.88542435 764.8594348 -422.86082252 745.84388534 C-422.84664888 734.53860144 -422.84372502 723.23344233 -422.85666505 711.92815627 C-422.86421403 704.38377784 -422.85737572 696.83950248 -422.83868354 689.29514363 C-422.82844143 684.99199425 -422.82461664 680.68909595 -422.83830877 676.38595048 C-422.85063823 672.47319377 -422.84467089 668.56091303 -422.82395798 664.64819561 C-422.81973627 663.23972852 -422.82224615 661.83122149 -422.83222724 660.42278344 C-422.89010202 651.62441612 -422.43701979 646.34083975 -416.7421875 639.484375 C-408.94152988 632.66369949 -399.87831766 631.92690362 -389.87109375 631.98681641 C-388.77378937 631.98155945 -387.67648499 631.97630249 -386.54592896 631.97088623 C-382.94713778 631.95776746 -379.34879506 631.96639576 -375.75 631.9765625 C-373.23233964 631.97453944 -370.71467985 631.97162607 -368.19702148 631.96786499 C-362.93175752 631.96345263 -357.66660845 631.96954793 -352.40136719 631.98388672 C-346.33802472 632.00020962 -340.27498503 631.99491973 -334.21164989 631.9784075 C-328.34794379 631.96308591 -322.48435156 631.96479302 -316.62063599 631.9735527 C-314.13925127 631.97554661 -311.65785877 631.97312403 -309.17648315 631.96611404 C-305.70208594 631.95845155 -302.2282611 631.97017149 -298.75390625 631.98681641 C-297.73958527 631.98074371 -296.72526428 631.97467102 -295.6802063 631.96841431 C-286.39179329 632.0503907 -278.68922214 633.91391744 -271.1015625 639.38671875 C-264.48993604 646.73457436 -264.74369068 654.39513889 -264.81472206 663.78854465 C-264.81115377 665.26440317 -264.80583167 666.7402583 -264.79892033 668.21610495 C-264.78499618 672.27686393 -264.79600097 676.33723225 -264.81103251 680.3979732 C-264.82297544 684.8140212 -264.81171331 689.23001969 -264.80339086 693.64606756 C-264.79201433 701.38790563 -264.7955303 709.12962646 -264.8087616 716.87145996 C-264.82838379 728.38450649 -264.82513527 739.89746705 -264.817261 751.41052353 C-264.80470176 770.78273934 -264.81106504 790.15490648 -264.82844925 809.52711678 C-264.84567391 828.72597772 -264.85548968 847.92481681 -264.85511398 867.12368584 C-264.85509105 868.91455958 -264.85509105 868.91455958 -264.85506765 870.7416126 C-264.85498583 875.58814606 -264.8548546 880.43467952 -264.85465602 885.28121298 C-264.85284286 930.77199409 -264.87274569 976.26274193 -264.90351535 1021.75351149 C-264.93073785 1062.14858608 -264.94323904 1102.54363702 -264.94189453 1142.9387207 C-264.94181371 1145.53029456 -264.94173299 1148.12186842 -264.94165237 1150.71344227 C-264.94159132 1152.63529398 -264.94159132 1152.63529398 -264.94152904 1154.59597098 C-264.94132744 1161.04586116 -264.94114627 1167.49575134 -264.94098854 1173.94564152 C-264.94095511 1175.2181651 -264.94092169 1176.49068869 -264.94088725 1177.80177359 C-264.94015614 1211.56513555 -264.94924305 1245.32849455 -264.96164167 1279.09185404 C-264.96208221 1280.29370917 -264.96252276 1281.4955643 -264.96297665 1282.73383929 C-264.96475308 1287.56661501 -264.96652991 1292.39939072 -264.96835856 1297.23216642 C-264.97466984 1314.02395778 -264.97769599 1330.81574681 -264.97858154 1347.60753928 C-264.97977798 1369.26212663 -264.98780979 1390.91669448 -265.00744446 1412.57127351 C-265.01764299 1424.01534429 -265.02250379 1435.45938651 -265.01945209 1446.9034616 C-265.01797593 1454.56083763 -265.02384472 1462.21818601 -265.03553971 1469.87555317 C-265.04199695 1474.23010381 -265.04546341 1478.58459491 -265.04001851 1482.93914831 C-265.01533073 1504.81434114 -265.27483926 1526.6245045 -269 1548.25 C-269.24991699 1549.71034668 -269.24991699 1549.71034668 -269.50488281 1551.20019531 C-278.10564767 1598.69401325 -301.3409163 1645.66399064 -340.3125 1675.375 C-341.31667969 1676.18324219 -342.32085938 1676.99148438 -343.35546875 1677.82421875 C-403.27479949 1725.80577513 -490.84332729 1733.57321994 -564.65625 1726.05859375 C-603.66999049 1721.53165455 -640.58252553 1709.38965622 -677.0625 1695.3125 C-677.75980225 1695.04525116 -678.45710449 1694.77800232 -679.17553711 1694.50265503 C-704.59748177 1684.71445198 -728.83962797 1672.25960232 -753.15655518 1660.05078125 C-756.45295762 1658.39715979 -759.75159616 1656.74802717 -763.05029011 1655.09898281 C-766.295303 1653.47633858 -769.53925874 1651.85159018 -772.78288841 1650.22618294 C-774.29926107 1649.46643965 -775.81585247 1648.70713274 -777.33269691 1647.94833183 C-785.43505969 1643.89290475 -793.4940739 1639.7690863 -801.50073242 1635.52758789 C-811.10001858 1630.44736133 -820.79732668 1625.57411769 -830.5194397 1620.73394775 C-833.59363538 1619.20338124 -836.66646954 1617.67010947 -839.73901367 1616.13623047 C-846.26236778 1612.88019621 -852.78730451 1609.62734218 -859.3125 1606.375 C-866.88943102 1602.59844306 -874.46565962 1598.8204901 -882.04019165 1595.03912354 C-885.02945646 1593.54767016 -888.01993846 1592.05867922 -891.01049805 1590.56982422 C-901.54391893 1585.31705829 -912.01081616 1579.95780475 -922.40756226 1574.43917847 C-925.49605833 1572.80048806 -928.60054366 1571.19909045 -931.7265625 1569.6328125 C-948.86004884 1561.00473227 -963.402659 1550.30102771 -976.9453125 1536.73828125 C-978.25585974 1535.42989663 -979.57830354 1534.13208863 -980.9453125 1532.8828125 C-1003.34472214 1512.12524441 -1019.23900718 1476.51306617 -1020.43858917 1446.18744607 C-1020.43910441 1445.09049437 -1020.43961965 1443.99354268 -1020.4401505 1442.86335003 C-1020.44467445 1440.94772611 -1020.44467445 1440.94772611 -1020.4492898 1438.99340272 C-1020.44759106 1437.58593946 -1020.44580033 1436.1784763 -1020.44392776 1434.77101326 C-1020.44557842 1433.26210594 -1020.44766517 1431.75319904 -1020.45014787 1430.24429286 C-1020.45571113 1426.08726917 -1020.45504272 1421.9302661 -1020.45337028 1417.77323989 C-1020.45263918 1413.2545391 -1020.45766212 1408.73584412 -1020.4619453 1404.2171458 C-1020.46952663 1395.24998895 -1020.47171842 1386.28283806 -1020.47227435 1377.31567834 C-1020.47318786 1366.57660698 -1020.47985506 1355.83754113 -1020.48662117 1345.09847214 C-1020.50268517 1319.1409233 -1020.50858498 1293.18337505 -1020.51336992 1267.22582213 C-1020.51570554 1254.94658126 -1020.51930816 1242.66734085 -1020.5230653 1230.38810035 C-1020.53590136 1188.35679282 -1020.54662034 1146.32548555 -1020.5500679 1104.2941761 C-1020.55028953 1101.65541011 -1020.55051132 1099.01664412 -1020.55073325 1096.37787812 C-1020.55095389 1093.73272705 -1020.55117438 1091.08757597 -1020.5513947 1088.44242489 C-1020.55183725 1083.13577024 -1020.55228437 1077.82911559 -1020.55273438 1072.52246094 C-1020.55284377 1071.20671795 -1020.55295316 1069.89097496 -1020.55306586 1068.53536097 C-1020.55669637 1025.87386186 -1020.57261589 983.21238355 -1020.59592474 940.55089057 C-1020.62052177 895.44922994 -1020.63424069 850.34757902 -1020.63543582 805.24591148 C-1020.63560727 800.29462615 -1020.6358227 795.34334083 -1020.63607025 790.39205551 C-1020.63612602 789.17290533 -1020.63618179 787.95375515 -1020.63623925 786.69766102 C-1020.63738983 767.07912679 -1020.64841247 747.46061 -1020.66295731 727.84208166 C-1020.67732503 708.12138338 -1020.68055773 688.40070746 -1020.67251733 668.68000539 C-1020.66806233 656.96582299 -1020.67191654 645.25171276 -1020.68775584 633.53753986 C-1020.69751301 625.7077458 -1020.6963205 617.87800225 -1020.68631961 610.04820865 C-1020.68093294 605.59021345 -1020.68020017 601.13235672 -1020.69282833 596.67437305 C-1020.70424665 592.60942269 -1020.70155679 588.54472223 -1020.68816125 584.47978014 C-1020.68574893 583.02739143 -1020.68823345 581.57498295 -1020.69655773 580.1226161 C-1020.90626435 540.92028984 -1002.82440808 504.64603875 -975.85205078 476.87109375 C-953.51213676 454.65978743 -924.39140709 441.69937282 -896.52868652 427.90924072 C-889.59575807 424.47639464 -882.66902674 421.03104893 -875.7421875 417.5859375 C-874.99863762 417.21641716 -874.25508774 416.84689682 -873.48900604 416.46617889 C-865.5750652 412.53167716 -857.67869999 408.57917258 -849.8828125 404.4140625 C-841.12867816 399.73735324 -832.25514112 395.3060385 -823.375 390.875 C-822.60811985 390.49228565 -821.8412397 390.1095713 -821.05112076 389.71525955 C-814.66452668 386.52900237 -808.27534367 383.34794868 -801.8861084 380.16699219 C-796.33957509 377.40532565 -790.79398178 374.64178544 -785.25 371.875 C-784.48198059 371.49175064 -783.71396118 371.10850128 -782.92266846 370.71363831 C-774.11465277 366.31530076 -765.34486303 361.86534985 -756.65991211 357.22766113 C-748.78044802 353.04517394 -740.79416113 349.07645128 -732.8125 345.09375 C-732.06749237 344.72196625 -731.32248474 344.3501825 -730.55490112 343.96713257 C-724.35800774 340.87572563 -718.1585207 337.78953235 -711.95898438 334.70343018 C-706.57565643 332.02337303 -701.193272 329.34143539 -695.8125 326.65625 C-695.06596161 326.28374115 -694.31942322 325.9112323 -693.55026245 325.5274353 C-685.61583968 321.56547592 -677.69865873 317.58401614 -669.875 313.40625 C-661.12287642 308.73352333 -652.25179014 304.30460698 -643.375 299.875 C-642.60810852 299.49227432 -641.84121704 299.10954865 -641.05108643 298.71522522 C-634.66450402 295.52897908 -628.27532991 292.34794183 -621.8861084 289.16699219 C-616.33957509 286.40532565 -610.79398178 283.64178544 -605.25 280.875 C-604.48198059 280.49175064 -603.71396118 280.10850128 -602.92266846 279.71363831 C-594.11465277 275.31530076 -585.34486303 270.86534985 -576.65991211 266.22766113 C-568.78044802 262.04517394 -560.79416113 258.07645128 -552.8125 254.09375 C-552.06749237 253.72196625 -551.32248474 253.3501825 -550.55490112 252.96713257 C-544.35800774 249.87572563 -538.1585207 246.78953235 -531.95898438 243.70343018 C-526.57565643 241.02337303 -521.193272 238.34143539 -515.8125 235.65625 C-514.69269241 235.09748672 -514.69269241 235.09748672 -513.55026245 234.5274353 C-505.61583968 230.56547592 -497.69865873 226.58401614 -489.875 222.40625 C-481.12287642 217.73352333 -472.25179014 213.30460698 -463.375 208.875 C-462.60810852 208.49227432 -461.84121704 208.10954865 -461.05108643 207.71522522 C-454.66450402 204.52897908 -448.27532991 201.34794183 -441.8861084 198.16699219 C-436.33957509 195.40532565 -430.79398178 192.64178544 -425.25 189.875 C-424.09797089 189.30012596 -424.09797089 189.30012596 -422.92266846 188.71363831 C-414.11465277 184.31530076 -405.34486303 179.86534985 -396.65991211 175.22766113 C-388.78044802 171.04517394 -380.79416113 167.07645128 -372.8125 163.09375 C-372.06749237 162.72196625 -371.32248474 162.3501825 -370.55490112 161.96713257 C-364.35800774 158.87572563 -358.1585207 155.78953235 -351.95898438 152.70343018 C-346.57565643 150.02337303 -341.193272 147.34143539 -335.8125 144.65625 C-334.69269241 144.09748672 -334.69269241 144.09748672 -333.55026245 143.5274353 C-325.61583968 139.56547592 -317.69865873 135.58401614 -309.875 131.40625 C-301.12287642 126.73352333 -292.25179014 122.30460698 -283.375 117.875 C-282.60810852 117.49227432 -281.84121704 117.10954865 -281.05108643 116.71522522 C-274.66450402 113.52897908 -268.27532991 110.34794183 -261.8861084 107.16699219 C-256.33957509 104.40532565 -250.79398178 101.64178544 -245.25 98.875 C-244.09797089 98.30012596 -244.09797089 98.30012596 -242.92266846 97.71363831 C-234.11465277 93.31530076 -225.34486303 88.86534985 -216.65991211 84.22766113 C-208.78044802 80.04517394 -200.79416113 76.07645128 -192.8125 72.09375 C-192.06749237 71.72196625 -191.32248474 71.3501825 -190.55490112 70.96713257 C-184.35800774 67.87572563 -178.1585207 64.78953235 -171.95898438 61.70343018 C-147.06927167 49.32013427 -147.06927167 49.32013427 -122.41027832 36.48590088 C-83.09872284 15.66804748 -45.22458425 -0.11348704 0 0 Z " fill="#000000" transform="translate(1023.3125,15.625)"/>
<path d="M0 0 C1.52947266 1.08861328 1.52947266 1.08861328 3.08984375 2.19921875 C22.3129035 16.26918495 39.93412724 32.73168114 54 52 C54.6290625 52.845625 55.258125 53.69125 55.90625 54.5625 C61.09486757 61.7322261 65.57556916 69.34435262 70 77 C70.3417627 77.58346191 70.68352539 78.16692383 71.03564453 78.76806641 C87.36262337 106.86769829 109.24072105 161.37309914 101.37109375 194.66015625 C98.76934944 201.35502131 95.71895024 205.81088321 89.07654476 208.89228916 C82.7115466 211.17308122 76.84094921 211.4322173 70.12133789 211.40405273 C68.96565811 211.41091599 67.80997833 211.41777924 66.61927795 211.42485046 C62.8202771 211.44306822 59.02169118 211.43928802 55.22265625 211.43359375 C53.24042091 211.43700308 51.25818538 211.44042112 49.27595228 211.44494683 C43.05086626 211.45895184 36.82591759 211.45746443 30.60083008 211.44604492 C24.20287972 211.43456686 17.80534872 211.44864291 11.4074536 211.4754414 C5.89120813 211.49767219 0.37509359 211.50421929 -5.14119345 211.49836498 C-8.42567192 211.4950118 -11.70982423 211.49903488 -14.99427605 211.51461601 C-18.66047891 211.52955933 -22.3257683 211.51882298 -25.99194336 211.50170898 C-27.06393982 211.51137695 -28.13593628 211.52104492 -29.24041748 211.53100586 C-37.42093853 211.45138859 -44.46009923 209.92426586 -50.875 204.625 C-55.65934568 198.71492592 -57.90332018 193.64244894 -59.75 186.375 C-67.20886958 158.92501599 -79.43721057 134.76339383 -99 114 C-99.61101563 113.32453125 -100.22203125 112.6490625 -100.8515625 111.953125 C-136.58496651 73.93886541 -196.83914079 66.42136151 -246 62 C-247.93576904 61.82210937 -247.93576904 61.82210937 -249.91064453 61.640625 C-271.69730247 59.7653036 -293.55612408 59.79542316 -315.40711975 59.75502014 C-317.70416463 59.75009821 -320.00118338 59.74218949 -322.29821777 59.73376465 C-348.70910305 59.65073388 -375.16186691 60.303296 -401.375 63.8125 C-402.68186768 63.98281738 -403.98873535 64.15313477 -405.33520508 64.32861328 C-425.27095684 66.98604931 -444.84765951 70.81101645 -464 77 C-464.70769531 77.22768066 -465.41539062 77.45536133 -466.14453125 77.68994141 C-491.31301414 85.98519425 -515.52617315 100.09361187 -527.95800781 124.29223633 C-534.01546571 136.83497705 -535.32783104 148.4923604 -535.4375 162.375 C-535.44789307 163.55167236 -535.45828613 164.72834473 -535.46899414 165.94067383 C-535.32295754 180.20492486 -531.64434869 192.04556775 -521.77734375 202.48828125 C-465.14936885 253.70035982 -336.2979061 250.1242729 -255.45610809 259.74825668 C-80.4632869 280.54949597 -80.4632869 280.54949597 97 372 C97.76957031 372.93199219 98.53914063 373.86398437 99.33203125 374.82421875 C105.94643507 383.0003211 111.1694327 391.67406637 116 401 C116.32097656 401.61069336 116.64195312 402.22138672 116.97265625 402.85058594 C125.58405954 419.43384269 129.9911085 437.64952295 133 456 C133.11859375 456.70753418 133.2371875 457.41506836 133.359375 458.14404297 C141.84728617 511.7113514 130.41288433 570.08154555 99.07495117 614.55883789 C94.39194628 621.00038635 89.29532414 627.0576163 84 633 C83.55156738 633.51014648 83.10313477 634.02029297 82.64111328 634.54589844 C23.54873946 701.66053547 -71.67831553 727.95177535 -224.2355957 746.27905273 C-233.96464911 746.89045026 -243.69334964 747.29312379 -253.4375 747.5625 C-254.18056396 747.58334656 -254.92362793 747.60419312 -255.68920898 747.62567139 C-336.19453067 749.83260854 -417.39359745 745.04670172 -536 716 C-537.11342773 715.64856934 -538.22685547 715.29713867 -539.37402344 714.93505859 C-578.77438856 702.32059633 -616.80124536 684.21094468 -649 658 C-649.6089209 657.50677246 -650.2178418 657.01354492 -650.84521484 656.50537109 C-674.47942792 637.21279323 -693.94399944 614.12393759 -708 587 C-708.36689941 586.30277832 -708.73379883 585.60555664 -709.11181641 584.88720703 C-720.36964231 563.25480902 -727.13569114 540.01237385 -731 516 C-731.1868335 514.854104 -731.1868335 514.854104 -731.37744141 513.68505859 C-732.83464587 504.35247356 -733.33122395 494.92498922 -733.8125 485.5 C-733.91062988 483.85173218 -733.91062988 483.85173218 -734.01074219 482.17016602 C-734.35665998 473.89275717 -733.50955189 466.91251711 -728.375 460.1875 C-723.33075382 454.99502785 -717.45635816 452.83509082 -710.27748108 452.4853363 C-708.10319084 452.45876633 -705.92856549 452.45378535 -703.75415039 452.46655273 C-702.55945633 452.45793716 -701.36476227 452.44932159 -700.13386536 452.44044495 C-696.88155619 452.42173131 -693.62989546 452.4208559 -690.37756276 452.42976642 C-687.65161568 452.43490612 -684.92575829 452.42755973 -682.19982046 452.42029434 C-675.76374783 452.40334149 -669.32791256 452.40681416 -662.8918457 452.42358398 C-656.27568323 452.44050132 -649.66018076 452.42466639 -643.04409033 452.3923611 C-637.34099039 452.36557983 -631.63809482 452.35841205 -625.93493837 452.36687618 C-622.53864569 452.37178067 -619.14274974 452.36972604 -615.74650764 452.34908867 C-611.95560233 452.33159891 -608.16609421 452.34622544 -604.37524414 452.36889648 C-603.26584473 452.35720428 -602.15644531 452.34551208 -601.01342773 452.33346558 C-593.08138729 452.42959831 -586.59478804 454.19896692 -580.38452244 459.33640194 C-575.07646893 465.01214082 -573.81635497 473.38224556 -572.36669922 480.74853516 C-565.23384906 516.9658175 -549.98895686 551.50856965 -518.91699219 573.25805664 C-474.80245864 602.58271228 -420.04197118 609.66235092 -368.38415527 613.80859375 C-366.85573044 613.93129971 -365.32747216 614.05610927 -363.79943848 614.18359375 C-339.41058189 616.21447061 -314.95790856 616.20369983 -290.50150299 616.24497986 C-287.99242544 616.24989246 -285.48337208 616.25779874 -282.9743042 616.26623535 C-252.41263886 616.35429994 -221.76990597 615.6137457 -191.375 612.1875 C-190.60734314 612.10385193 -189.83968628 612.02020386 -189.04876709 611.934021 C-148.82051044 607.52613252 -103.10241051 600.11217349 -70 575 C-69.46681152 574.59555664 -68.93362305 574.19111328 -68.38427734 573.77441406 C-49.66175916 559.35411463 -38.3127515 539.01620161 -34.75 515.6875 C-32.5094184 496.02690105 -33.51669074 477.45479227 -45.4375 461 C-95.89559526 400.82754248 -237.08359327 402.86234205 -326.6875 394.5 C-517.64981574 376.7854511 -517.64981574 376.7854511 -638 313 C-638.95777344 312.28714844 -639.91554688 311.57429688 -640.90234375 310.83984375 C-672.49206715 286.1856085 -692.88636282 252.3207271 -701.3125 213.3125 C-701.45969482 212.63864258 -701.60688965 211.96478516 -701.75854492 211.27050781 C-704.61639278 196.92274031 -705.38392112 182.40265156 -705.3125 167.8125 C-705.31034485 167.01084412 -705.3081897 166.20918823 -705.30596924 165.38323975 C-705.16197661 131.8113178 -697.76155326 100.65670702 -682 71 C-681.39542969 69.83855469 -680.79085937 68.67710937 -680.16796875 67.48046875 C-671.96625654 52.37205153 -660.92789343 39.29149775 -649 27 C-648.14664063 26.10667969 -647.29328125 25.21335937 -646.4140625 24.29296875 C-585.77714745 -37.96985727 -489.69089664 -59.42478716 0 0 Z " fill="#000000" transform="translate(1571,698)"/>
</svg>
