<?xml version="1.0" encoding="UTF-8"?>
<svg version="1.1" xmlns="http://www.w3.org/2000/svg" width="2048" height="2048">
<path d="M0 0 C91.74984358 -1.9351704 181.02021236 44.52703004 331.53173828 151.71142578 C333.11866796 153.00630886 334.70942487 154.29649853 336.30078125 155.5859375 C346.47312377 163.84629787 356.41338304 172.37380001 366.1171875 181.1796875 C368.12902143 182.99671357 370.16254184 184.78303767 372.2109375 186.55859375 C377.14296843 190.85678938 381.94197911 195.29962586 386.75390625 199.73095703 C388.32890615 201.17713749 389.9095546 202.61686747 391.4921875 204.0546875 C396.64390127 208.74114772 401.69307101 213.49021903 406.578125 218.45703125 C409.037597 220.87277931 411.64498815 223.03083427 414.3359375 225.18359375 C418.2373647 223.5672882 421.0502961 220.90920558 424.0859375 218.05859375 C424.88209473 217.32044434 424.88209473 217.32044434 425.69433594 216.56738281 C429.38482505 213.12755155 432.95809966 209.58468641 436.5 205.9921875 C438.88753725 203.64020932 441.4072326 201.47147497 443.94921875 199.2890625 C446.45601271 197.07766815 448.8933866 194.80380915 451.33007812 192.51586914 C456.93692504 187.25154577 462.62748269 182.2253576 468.63671875 177.41796875 C471.57589713 174.98495857 474.36547649 172.41588006 477.1484375 169.80859375 C481.91733519 165.35741542 486.89744661 161.28845666 492.06054688 157.3046875 C496.01999193 154.24294795 499.85713826 151.07547024 503.6484375 147.80859375 C510.58555507 141.86066762 517.84400082 136.36021651 525.13330078 130.85400391 C527.33249166 129.18620697 529.52132304 127.50573095 531.70703125 125.8203125 C540.45160744 119.07990716 549.27296751 112.49018037 558.3359375 106.18359375 C559.03912109 105.6942334 559.74230469 105.20487305 560.46679688 104.70068359 C586.66031369 86.52709187 613.54577488 69.56841549 641.70361328 54.58789062 C644.28487285 53.21083581 646.85571048 51.81577002 649.42578125 50.41796875 C701.66164537 22.24152993 760.6356265 1.97415544 820.3359375 0.18359375 C821.45097656 0.14234375 822.56601563 0.10109375 823.71484375 0.05859375 C878.85338151 -1.00303875 928.36514954 18.67958629 967.94921875 56.6328125 C975.86291435 64.31882636 982.99119117 72.14729742 989.3359375 81.18359375 C989.74118652 81.75513184 990.14643555 82.32666992 990.56396484 82.91552734 C997.59281125 92.90388802 1003.68260246 103.36352823 1009.3359375 114.18359375 C1009.7160498 114.9096582 1010.09616211 115.63572266 1010.48779297 116.38378906 C1052.80057335 198.43937617 1052.00202554 300.17379119 1010.3359375 569.18359375 C1011.77984863 569.58916504 1011.77984863 569.58916504 1013.25292969 570.00292969 C1035.77671263 576.34777844 1058.06207361 583.18818647 1080.19970703 590.77099609 C1084.05045876 592.08918579 1087.90910427 593.38229607 1091.76953125 594.671875 C1133.19340385 608.60014061 1174.17877186 625.18094364 1213.1171875 645.046875 C1216.32915115 646.68494516 1219.56241584 648.27434633 1222.8046875 649.8515625 C1237.39344207 656.98165741 1251.41742261 664.8274961 1265.3359375 673.18359375 C1266.91384341 674.11885932 1268.49195387 675.05377991 1270.0703125 675.98828125 C1299.6253328 693.62317739 1327.77740484 714.13377813 1352.81835938 737.76757812 C1354.32275932 739.17129751 1355.84748606 740.54819741 1357.3828125 741.91796875 C1364.85031824 748.59364891 1371.69624216 755.68651361 1378.3359375 763.18359375 C1378.79323242 763.69615723 1379.25052734 764.2087207 1379.72167969 764.73681641 C1396.55815348 783.71269814 1410.73297521 805.13414446 1421.3359375 828.18359375 C1421.84036377 829.27510742 1421.84036377 829.27510742 1422.35498047 830.38867188 C1427.94666321 842.64887621 1432.20688255 855.07685306 1435.3359375 868.18359375 C1435.54766602 869.05419434 1435.75939453 869.92479492 1435.97753906 870.82177734 C1441.78780312 895.85379452 1442.34314731 926.09778301 1436.3359375 951.18359375 C1436.02197021 952.50883057 1436.02197021 952.50883057 1435.70166016 953.86083984 C1425.77758206 994.63173395 1405.3223402 1030.08759075 1377.3359375 1061.18359375 C1376.84383789 1061.73208984 1376.35173828 1062.28058594 1375.84472656 1062.84570312 C1366.23360806 1073.51360695 1356.30485172 1083.89925972 1345.3359375 1093.18359375 C1344.28681216 1094.09526408 1343.23872909 1095.00813453 1342.19140625 1095.921875 C1334.45873445 1102.64749612 1326.56498076 1109.07313886 1318.3359375 1115.18359375 C1317.37059082 1115.90385742 1317.37059082 1115.90385742 1316.38574219 1116.63867188 C1245.47362773 1169.34316701 1163.17488504 1204.79306006 1014.11547852 1253.63378906 C1012.2575176 1254.15477947 1012.2575176 1254.15477947 1010.3359375 1255.18359375 C1010.75721924 1256.88104736 1010.75721924 1256.88104736 1011.18701172 1258.61279297 C1030.72659881 1337.62529954 1045.85334004 1418.56660382 1047.3359375 1500.18359375 C1047.36880859 1501.9929541 1047.36880859 1501.9929541 1047.40234375 1503.83886719 C1048.60199371 1583.67557203 1039.52533882 1672.67915785 991.3359375 1739.18359375 C990.93020508 1739.74481934 990.52447266 1740.30604492 990.10644531 1740.88427734 C984.06453483 1749.15656795 977.42286335 1756.79444858 970.3359375 1764.18359375 C969.82659668 1764.72016602 969.31725586 1765.25673828 968.79248047 1765.80957031 C937.25481178 1798.89158434 890.93941837 1821.19082468 845.01016235 1823.28988647 C842.5649701 1823.34684724 840.12160062 1823.37390174 837.67578125 1823.38671875 C836.32735641 1823.3973082 836.32735641 1823.3973082 834.95169067 1823.40811157 C797.75538408 1823.63375263 797.75538408 1823.63375263 779.3359375 1820.18359375 C778.22895508 1819.98491699 777.12197266 1819.78624023 775.98144531 1819.58154297 C683.38053824 1802.69787581 599.70954476 1751.16407758 526.3359375 1694.18359375 C525.70139648 1693.69084961 525.06685547 1693.19810547 524.41308594 1692.69042969 C517.52596827 1687.33137999 510.70504106 1681.89967394 503.96875 1676.3515625 C502.21864224 1674.91045002 500.46344138 1673.47549972 498.703125 1672.046875 C488.42220856 1663.69925042 478.37102627 1655.09327526 468.5625 1646.1953125 C466.50489359 1644.33624706 464.42746987 1642.50431017 462.3359375 1640.68359375 C450.60931908 1630.45798249 439.19175269 1619.88008641 427.8359375 1609.24609375 C427.15321777 1608.60720215 426.47049805 1607.96831055 425.76708984 1607.31005859 C422.57422457 1604.31421511 419.40496001 1601.30742023 416.3359375 1598.18359375 C413.3291195 1599.52358873 411.33831141 1600.98204666 409.0859375 1603.37109375 C406.65559956 1605.87883099 404.18088092 1608.23055612 401.5234375 1610.49609375 C398.31259995 1613.25977404 395.31326585 1616.16978971 392.3359375 1619.18359375 C388.8489085 1622.7077188 385.29537451 1626.05031064 381.53125 1629.2734375 C378.75171167 1631.69193259 376.04466589 1634.18658979 373.3359375 1636.68359375 C368.72827448 1640.92150603 364.08149607 1645.10059135 359.3359375 1649.18359375 C358.84399902 1649.60721191 358.35206055 1650.03083008 357.84521484 1650.46728516 C354.28157592 1653.53430832 350.71073406 1656.59278772 347.13525391 1659.64599609 C345.9751149 1660.63738761 344.81586655 1661.62982279 343.65771484 1662.62353516 C336.54524536 1668.72574716 329.30889007 1674.62620805 321.9140625 1680.3828125 C318.92692237 1682.71112047 315.97579151 1685.08077042 313.03149414 1687.46289062 C293.87948811 1702.93448568 273.97854105 1717.75731059 253.3359375 1731.18359375 C251.85529318 1732.15598271 250.37484055 1733.1286636 248.89453125 1734.1015625 C177.14503764 1781.14266861 97.01266279 1821.79250615 -39.68603516 1819.80908203 C-74.45215845 1812.50699908 -107.66700894 1795.69316481 -133.05908203 1770.7578125 C-134.7666015 1769.08302005 -136.49429382 1767.43060055 -138.22265625 1765.77734375 C-145.82103061 1758.43224854 -152.57513251 1750.82044502 -158.6640625 1742.18359375 C-159.07076172 1741.61060547 -159.47746094 1741.03761719 -159.89648438 1740.44726562 C-166.92346945 1730.46039604 -173.01180927 1720.00158877 -178.6640625 1709.18359375 C-179.23423096 1708.09449707 -179.23423096 1708.09449707 -179.81591797 1706.98339844 C-217.47506544 1633.95242699 -220.26337668 1544.655529 -179.6640625 1255.18359375 C-182.72607068 1254.20286816 -185.78855742 1253.22369893 -188.8515625 1252.24609375 C-190.32858643 1251.77465942 -190.32858643 1251.77465942 -191.83544922 1251.29370117 C-197.32116768 1249.54816787 -202.81255914 1247.8242759 -208.31640625 1246.13671875 C-284.37613226 1222.81519435 -359.87934218 1194.63238964 -428.6640625 1154.18359375 C-429.54513672 1153.66812988 -430.42621094 1153.15266602 -431.33398438 1152.62158203 C-442.35259709 1146.15897542 -453.15780693 1139.45087416 -463.6640625 1132.18359375 C-464.33501953 1131.71985352 -465.00597656 1131.25611328 -465.69726562 1130.77832031 C-483.70006052 1118.28981987 -500.9538215 1105.22273635 -517.15234375 1090.44921875 C-519.23053211 1088.5746476 -521.33442694 1086.74216671 -523.453125 1084.9140625 C-527.71639416 1081.19011357 -531.73664075 1077.25923522 -535.7265625 1073.24609375 C-536.39494141 1072.58158203 -537.06332031 1071.91707031 -537.75195312 1071.23242188 C-542.26089732 1066.71471394 -546.52292324 1062.0394598 -550.6640625 1057.18359375 C-551.17219482 1056.59280029 -551.68032715 1056.00200684 -552.20385742 1055.39331055 C-583.33450776 1018.90564707 -608.39418732 971.56419193 -608.90234375 922.6171875 C-608.91710251 921.435233 -608.91710251 921.435233 -608.93215942 920.22940063 C-609.10746818 902.54016028 -608.90475671 885.46503549 -604.6640625 868.18359375 C-604.43332031 867.22066406 -604.20257812 866.25773438 -603.96484375 865.265625 C-596.50465691 835.06963067 -582.1745308 807.98934432 -563.6640625 783.18359375 C-563.2 782.5611377 -562.7359375 781.93868164 -562.2578125 781.29736328 C-555.98322225 772.95278214 -549.1898127 765.23166862 -542.02490234 757.64599609 C-540.08180152 755.55787734 -538.22299398 753.39841551 -536.3515625 751.24609375 C-521.42058277 734.61718672 -503.54065304 720.48164497 -485.6640625 707.18359375 C-484.95797852 706.65652832 -484.25189453 706.12946289 -483.52441406 705.58642578 C-436.83115786 670.87100486 -384.32398657 643.45250028 -330.6640625 621.18359375 C-328.49084175 620.26833285 -326.3176638 619.3529703 -324.14453125 618.4375 C-283.32208016 601.391135 -241.29099946 587.57384886 -199.00390625 574.6796875 C-198.32198212 574.47082413 -197.64005798 574.26196075 -196.93746948 574.04676819 C-191.21105385 572.30977134 -185.44235673 570.73818902 -179.6640625 569.18359375 C-179.8091626 568.57306656 -179.9542627 567.96253937 -180.10375977 567.33351135 C-187.60426986 535.73885438 -194.98797909 504.1647495 -200.6640625 472.18359375 C-200.81619202 471.32713257 -200.96832153 470.47067139 -201.12506104 469.58825684 C-208.23570613 429.35064429 -213.10113775 388.96384665 -215.6640625 348.18359375 C-215.77210205 346.47381348 -215.77210205 346.47381348 -215.88232422 344.72949219 C-221.30808596 253.80120929 -212.0169711 149.89278676 -146.4765625 66.30859375 C-144.88484914 64.58865129 -143.2790747 62.88167769 -141.6640625 61.18359375 C-141.14247559 60.62945801 -140.62088867 60.07532227 -140.08349609 59.50439453 C-102.62480911 19.94045066 -53.65082725 2.68826107 0 0 Z M-69.6640625 112.18359375 C-70.42203125 112.80878906 -71.18 113.43398437 -71.9609375 114.078125 C-112.88276786 148.72057105 -124.55782654 211.24266998 -128.78808594 261.87084961 C-131.6781415 299.78374837 -130.63242423 338.38803284 -126.6640625 376.18359375 C-126.53677765 377.42387329 -126.53677765 377.42387329 -126.40692139 378.68920898 C-121.10081847 430.33839835 -111.56402868 481.26586351 -99.66867065 531.78900146 C-99.33549367 533.20500868 -99.00593109 534.62187182 -98.6802063 536.03961182 C-98.24072014 537.93981154 -97.78117722 539.83534058 -97.3203125 541.73046875 C-97.07087891 542.77041992 -96.82144531 543.81037109 -96.56445312 544.88183594 C-96.26732422 545.64141602 -95.97019531 546.40099609 -95.6640625 547.18359375 C-92.24067974 548.32472134 -90.92122316 548.01273235 -87.44482422 547.26245117 C-86.36547607 547.03400513 -85.28612793 546.80555908 -84.17407227 546.57019043 C-82.99256592 546.31241821 -81.81105957 546.054646 -80.59375 545.7890625 C-78.69326547 545.38578895 -76.79277626 544.98253685 -74.89210892 544.58012581 C-72.85251337 544.14734133 -70.8136303 543.71131687 -68.77484131 543.27474976 C-61.57733407 541.73613228 -54.37156846 540.23707982 -47.1640625 538.74609375 C-46.06109644 538.51790231 -46.06109644 538.51790231 -44.93584824 538.28510094 C-20.95002546 533.33415699 3.16777053 529.14091099 27.3359375 525.18359375 C28.42553772 525.00503845 29.51513794 524.82648315 30.63775635 524.64251709 C58.58242709 520.08389189 86.60669194 516.28402681 114.7109375 512.87109375 C115.3955241 512.78771507 116.0801107 512.7043364 116.78544235 512.61843109 C129.5190428 511.06884114 142.24943522 509.52073941 155.02832031 508.39306641 C155.74204866 508.328956 156.45577702 508.2648456 157.1911335 508.19879246 C160.62110117 507.89132041 164.05059099 507.59715396 167.48373413 507.32609558 C168.70291534 507.2195314 169.92209656 507.11296722 171.17822266 507.00317383 C172.24948395 506.91667068 173.32074524 506.83016754 174.42446899 506.74104309 C178.29829312 505.99933467 181.12940346 504.51735637 183.78295898 501.58398438 C184.17040283 501.00841797 184.55784668 500.43285156 184.95703125 499.83984375 C185.40997559 499.18064941 185.86291992 498.52145508 186.32958984 497.84228516 C186.80605957 497.12991699 187.2825293 496.41754883 187.7734375 495.68359375 C188.83536621 494.13803408 189.89924323 492.59381165 190.96484375 491.05078125 C191.79266357 489.84760254 191.79266357 489.84760254 192.63720703 488.62011719 C195.42057844 484.62787134 198.31304981 480.71812686 201.2109375 476.80859375 C201.79254639 476.02274902 202.37415527 475.2369043 202.97338867 474.42724609 C204.16055436 472.82358542 205.34813775 471.22023387 206.53613281 469.6171875 C208.35791265 467.1538802 210.1722718 464.68527658 211.984375 462.21484375 C218.66046003 453.11649426 225.41721004 444.09876993 232.3359375 435.18359375 C233.56740218 433.58135488 234.79653167 431.97734191 236.02563477 430.37329102 C244.36014687 419.50466977 252.8332675 408.75785062 261.49707031 398.1496582 C265.02037659 393.82802126 268.47705243 389.46114776 271.8984375 385.05859375 C277.01702171 378.490178 282.41051426 372.18267181 287.86279297 365.890625 C290.22745114 363.15053717 292.56348599 360.3864972 294.8984375 357.62109375 C295.34687012 357.09080566 295.79530273 356.56051758 296.25732422 356.01416016 C298.55992223 353.29034508 300.85812357 350.56290612 303.15234375 347.83203125 C308.06291647 341.99535294 313.04773551 336.25850806 318.18359375 330.6171875 C320.34098596 328.1778856 322.37135716 325.66931384 324.3984375 323.12109375 C329.13378351 317.25828441 334.2856362 311.8212708 339.48852539 306.37280273 C347.96151751 298.04019593 347.96151751 298.04019593 354.3359375 288.18359375 C352.00697781 285.82506719 349.6719564 283.47262701 347.3359375 281.12109375 C346.68753906 280.46431641 346.03914063 279.80753906 345.37109375 279.13085938 C341.49897676 275.23957349 337.52421793 271.54725415 333.3671875 267.96313477 C329.02129202 264.15577513 324.87790154 260.12513333 320.69140625 256.14453125 C316.00371849 251.70536807 311.22827567 247.3959499 306.3359375 243.18359375 C305.77036133 242.69584473 305.20478516 242.2080957 304.62207031 241.70556641 C302.98746479 240.29953273 301.34987911 238.89706993 299.7109375 237.49609375 C296.0696418 234.38335734 292.43005032 231.2692392 288.8125 228.12890625 C282.56743775 222.7183891 276.24369453 217.45776475 269.71557617 212.39160156 C265.97054196 209.4825356 262.28431712 206.51337206 258.62475586 203.49755859 C249.13091826 195.68434721 239.31029516 188.36991795 229.3359375 181.18359375 C228.62324707 180.66941895 227.91055664 180.15524414 227.17626953 179.62548828 C155.23767805 127.88963721 46.14058507 57.67005102 -69.6640625 112.18359375 Z M712.3359375 115.18359375 C711.33256348 115.64491699 710.32918945 116.10624023 709.29541016 116.58154297 C679.20664655 130.45384881 650.62724403 147.41934626 623.3359375 166.18359375 C622.54123047 166.72983398 621.74652344 167.27607422 620.92773438 167.83886719 C603.83140889 179.62874074 587.04016772 191.78444772 570.92724609 204.89208984 C568.65863404 206.73329233 566.37197279 208.55159628 564.0859375 210.37109375 C554.61812119 217.95469003 545.32628091 225.71652817 536.13867188 233.63525391 C534.36107837 235.16200066 532.57641735 236.68001083 530.7890625 238.1953125 C523.82339561 244.10961262 517.02477333 250.16483682 510.33984375 256.39453125 C507.76332937 258.79495 505.15207014 261.15270506 502.5234375 263.49609375 C497.96609761 267.58120927 493.48999667 271.74982408 489.0234375 275.93359375 C488.34112061 276.57208252 487.65880371 277.21057129 486.95581055 277.8684082 C483.35459099 281.24973303 479.80541933 284.66713634 476.3359375 288.18359375 C477.66449944 291.11002612 479.13157927 293.25367005 481.34765625 295.57421875 C481.93683838 296.19683594 482.52602051 296.81945312 483.13305664 297.4609375 C484.06879517 298.43740234 484.06879517 298.43740234 485.0234375 299.43359375 C486.30811779 300.79218804 487.59198296 302.15155362 488.875 303.51171875 C489.48375977 304.15560547 490.09251953 304.79949219 490.71972656 305.46289062 C493.68752996 308.62257013 496.51587918 311.89255661 499.3359375 315.18359375 C501.45839172 317.64413147 503.5844272 320.10156127 505.7109375 322.55859375 C506.2778833 323.2144043 506.8448291 323.87021484 507.42895508 324.54589844 C510.60658592 328.21433077 513.81817158 331.84478416 517.0859375 335.43359375 C520.82047674 339.55376476 524.33270317 343.82092585 527.828125 348.14453125 C530.72424864 351.65416394 533.71253073 355.07397525 536.7109375 358.49609375 C541.40481642 363.86422024 545.88673306 369.34833713 550.24609375 374.99023438 C553.4437867 379.1074951 556.78406545 383.06842271 560.2109375 386.99609375 C565.19537799 392.72456498 569.833973 398.66390211 574.4074707 404.72363281 C578.13629568 409.65245642 581.97363971 414.47223176 585.8984375 419.24609375 C591.1534922 425.65406707 596.17048427 432.20592626 601.109375 438.859375 C604.10639777 442.89267242 607.15767678 446.88290493 610.21435547 450.87109375 C617.54738671 460.44211675 624.70684856 470.11728823 631.71972656 479.92480469 C634.60351394 483.95513714 637.50071516 487.97577504 640.3984375 491.99609375 C641.20317505 493.11697388 641.20317505 493.11697388 642.02416992 494.26049805 C642.53052979 494.96343994 643.03688965 495.66638184 643.55859375 496.390625 C643.99953369 497.00397705 644.44047363 497.6173291 644.89477539 498.24926758 C645.37035889 498.88759521 645.84594238 499.52592285 646.3359375 500.18359375 C646.90380478 501.02337265 647.47167206 501.86315155 648.05674744 502.7283783 C650.83916188 505.72568293 652.23423387 505.9614641 656.24414062 506.40136719 C657.40115479 506.53957886 658.55816895 506.67779053 659.75024414 506.82019043 C660.93352295 506.94011353 662.11680176 507.06003662 663.3359375 507.18359375 C664.41931396 507.31221802 665.50269043 507.44084229 666.61889648 507.57336426 C670.0118558 507.97345463 673.40723754 508.33934608 676.8046875 508.69921875 C679.39960697 508.98002755 681.99449507 509.26112638 684.58935547 509.54248047 C685.9475685 509.68896582 687.30578386 509.8354296 688.66400146 509.98187256 C763.93028542 518.1144812 839.03944732 529.02522881 912.87011719 545.98657227 C913.57159378 546.14507156 914.27307037 546.30357086 914.99580383 546.46687317 C916.83840564 546.88403701 918.67894752 547.31027159 920.51928711 547.73730469 C923.40558272 548.416376 923.40558272 548.416376 926.3359375 547.18359375 C927.29496408 544.30690181 928.04381137 541.5519665 928.71875 538.60546875 C928.93423492 537.708815 929.14971985 536.81216125 929.37173462 535.88833618 C930.08283685 532.90668359 930.77295287 529.92065955 931.4609375 526.93359375 C931.95078815 524.84064393 932.44069782 522.74770792 932.93066406 520.65478516 C943.67393356 474.41195903 952.44737563 427.58478311 957.12304688 380.31188965 C957.33784962 378.16447807 957.56279986 376.01830195 957.7890625 373.87207031 C962.2702225 330.65136314 963.58453102 284.25296127 957.3359375 241.18359375 C957.15901367 239.94367676 956.98208984 238.70375977 956.79980469 237.42626953 C949.89864873 190.64978155 935.24672466 137.44339088 895.36621094 107.69750977 C840.80054342 68.42772835 768.07656878 89.20432499 712.3359375 115.18359375 Z M412.85546875 353.43359375 C409.20422692 357.17674327 405.68975306 360.99887837 402.27734375 364.9609375 C400.04789689 367.51336258 397.75592368 370.00246889 395.4609375 372.49609375 C392.15256836 376.1188328 388.97581392 379.80052266 385.8984375 383.62109375 C382.67648675 387.61585809 379.32915767 391.42891042 375.8359375 395.18359375 C371.62692329 399.71214235 367.66151007 404.38335368 363.78515625 409.19921875 C360.84946891 412.77635611 357.81728233 416.26101749 354.7734375 419.74609375 C350.46804457 424.68339729 346.26411619 429.67124656 342.20703125 434.81640625 C340.21469866 437.33697734 338.18636375 439.82475597 336.1484375 442.30859375 C335.39820313 443.22511719 334.64796875 444.14164063 333.875 445.0859375 C332.53944662 446.71667914 331.20221708 448.3459812 329.86230469 449.97314453 C323.2993076 457.94659233 316.88776248 465.99573374 310.73974609 474.29443359 C306.84780767 479.54042872 302.8329582 484.67840533 298.72412109 489.75634766 C296.74235283 492.23596574 295.34945671 494.14303613 294.3359375 497.18359375 C306.46067984 497.29809814 318.54684803 497.14020278 330.6640625 496.68798828 C346.08284418 496.14576184 361.49291981 496.03457257 376.92062759 496.04926825 C380.5521475 496.05188118 384.18366548 496.04943043 387.81518555 496.04788208 C393.90251124 496.0460855 399.98982463 496.04839937 406.07714844 496.05322266 C413.01803544 496.05866032 419.95889302 496.05689585 426.89977932 496.05139625 C432.96368624 496.04679214 439.02758454 496.04624949 445.09149265 496.04883492 C448.66739442 496.05035837 452.24328258 496.05070466 455.81918335 496.04729843 C471.82226148 496.0340789 487.79824468 496.23232716 503.78974915 496.82913017 C514.64221428 497.23218676 525.47758615 497.28613852 536.3359375 497.18359375 C534.57830825 493.51144785 532.40636174 490.52676214 529.8984375 487.30859375 C529.45814209 486.74197021 529.01784668 486.17534668 528.56420898 485.59155273 C527.15883034 483.78569942 525.74807466 481.98416561 524.3359375 480.18359375 C523.65917969 479.31903564 523.65917969 479.31903564 522.96875 478.43701172 C520.68714088 475.52317926 518.40061477 472.61329643 516.109375 469.70703125 C514.29504111 467.40515067 512.48785159 465.09798746 510.6875 462.78515625 C503.91107762 454.09238407 496.93524112 445.57528979 489.90625 437.0859375 C487.8271973 434.56728411 485.76925621 432.03170376 483.7109375 429.49609375 C479.81326895 424.72181201 475.80603463 420.0477893 471.78125 415.38085938 C468.69819432 411.79838014 465.68048947 408.17393109 462.7109375 404.49609375 C458.9033454 399.80189627 454.87527837 395.35474363 450.78125 390.91015625 C448.4918437 388.35743165 446.34355878 385.74261521 444.2109375 383.05859375 C439.50063544 377.21277244 434.36596306 371.8000201 429.18310547 366.37255859 C425.23887787 362.23768522 421.44152404 358.03488247 417.78564453 353.64135742 C417.30724121 353.16029541 416.82883789 352.6792334 416.3359375 352.18359375 C414.26769579 351.96855091 414.26769579 351.96855091 412.85546875 353.43359375 Z M301.3359375 583.18359375 C299.97526408 583.25936355 298.61458682 583.33506424 297.25390625 583.41070557 C281.27598707 584.30182275 265.30165104 585.25182588 249.33203125 586.28125 C248.13288086 586.3572493 246.93373047 586.4332486 245.69824219 586.5115509 C242.57577335 586.71690329 239.4561885 586.94735345 236.3359375 587.18359375 C235.52635086 587.22665649 234.71676422 587.26971924 233.88264465 587.31408691 C230.70796681 587.55620239 228.7577434 587.82094324 226.30786133 589.92724609 C225.527052 591.14855225 225.527052 591.14855225 224.73046875 592.39453125 C224.06998535 593.39323242 223.40950195 594.39193359 222.72900391 595.42089844 C222.17288422 596.29868958 222.17288422 596.29868958 221.60552979 597.19421387 C220.1569194 599.46410507 218.66398588 601.70118284 217.16552734 603.93847656 C213.4201634 609.54138989 209.72129218 615.17425937 206.0234375 620.80859375 C204.75608717 622.73452492 203.48851046 624.66030714 202.22070312 626.5859375 C163.21453325 685.87171207 126.59792544 746.59368634 92.99121094 809.11132812 C91.34558161 812.16569382 89.68927388 815.21406664 88.03125 818.26171875 C79.82824647 833.39358551 71.92515233 848.67306203 64.0859375 863.99609375 C63.5842807 864.97458282 63.0826239 865.9530719 62.56576538 866.96121216 C59.12130626 873.68492666 55.71719621 880.42790349 52.3359375 887.18359375 C51.80846924 888.22980896 51.28100098 889.27602417 50.73754883 890.35394287 C49.15611631 893.50207665 47.59502366 896.65952536 46.0390625 899.8203125 C45.5513739 900.78580521 45.0636853 901.75129791 44.56121826 902.74604797 C43.90298065 904.09898201 43.90298065 904.09898201 43.23144531 905.47924805 C42.84015442 906.26905563 42.44886353 907.05886322 42.04571533 907.87260437 C40.46696944 913.01289592 43.2741273 917.53732906 45.51953125 922.09765625 C45.84623306 922.77188126 46.17293488 923.44610626 46.50953674 924.14076233 C47.59100435 926.36660797 48.68166929 928.58778422 49.7734375 930.80859375 C50.54101628 932.37866179 51.3085944 933.94873015 52.07617188 935.51879883 C60.25346477 952.19818215 68.7257909 968.72410991 77.3359375 985.18359375 C77.70543518 985.88993958 78.07493286 986.5962854 78.45562744 987.32403564 C86.82123439 1003.30064008 95.35071152 1019.15962324 104.296875 1034.8203125 C107.36928631 1040.21124734 110.32506012 1045.66163952 113.2734375 1051.12109375 C119.69509809 1062.96642572 126.48245168 1074.58410645 133.3359375 1086.18359375 C134.07514941 1087.43743112 134.81424025 1088.69133986 135.55322266 1089.9453125 C149.58493822 1113.74687955 163.89404767 1137.36584568 178.73730469 1160.67236328 C179.86457263 1162.4431449 180.99005714 1164.21506247 182.11425781 1165.98779297 C191.94374224 1181.48539284 201.98954391 1196.82290491 212.23779297 1212.04541016 C214.23246608 1215.0288321 216.19659871 1218.03002597 218.15234375 1221.0390625 C219.29666802 1222.77487605 220.44118578 1224.51056207 221.5859375 1226.24609375 C222.08633545 1227.03161621 222.5867334 1227.81713867 223.10229492 1228.62646484 C223.81349487 1229.6930835 223.81349487 1229.6930835 224.5390625 1230.78125 C224.93770508 1231.39492432 225.33634766 1232.00859863 225.74707031 1232.64086914 C229.26786224 1236.05941312 234.35996964 1236.45112338 239.06689453 1236.74609375 C240.73644699 1236.85630859 240.73644699 1236.85630859 242.43972778 1236.96875 C243.64555511 1237.03964844 244.85138245 1237.11054687 246.09375 1237.18359375 C247.38248016 1237.26480469 248.67121033 1237.34601562 249.99899292 1237.4296875 C252.75766627 1237.60280967 255.51660848 1237.77027068 258.27587891 1237.93359375 C262.28758391 1238.1713657 266.29803744 1238.42714254 270.30859375 1238.68359375 C279.31428782 1239.24999166 288.32378888 1239.73247794 297.3359375 1240.18359375 C298.23809494 1240.22896774 299.14025238 1240.27434174 300.06974792 1240.3210907 C336.35905419 1242.12529352 372.6078144 1242.50210335 408.93162048 1242.44073248 C413.91212345 1242.43318844 418.8925468 1242.43592128 423.87304688 1242.44433594 C471.57490818 1242.52267453 519.13475313 1241.31907054 566.74658203 1238.25030518 C569.56231036 1238.07080334 572.37848409 1237.89884542 575.19467068 1237.7267065 C578.61569362 1237.51683294 582.03634968 1237.30130592 585.45703125 1237.0859375 C587.30632484 1236.97184792 587.30632484 1236.97184792 589.19297791 1236.85545349 C590.32610916 1236.7819014 591.45924042 1236.7083493 592.62670898 1236.63256836 C593.61348129 1236.56976181 594.6002536 1236.50695526 595.6169281 1236.44224548 C600.78326936 1236.18464401 600.78326936 1236.18464401 604.95068359 1233.5275116 C605.41555176 1232.80840103 605.88041992 1232.08929047 606.359375 1231.34838867 C607.16677124 1230.12396309 607.16677124 1230.12396309 607.99047852 1228.87480164 C608.55822998 1227.98025772 609.12598145 1227.08571381 609.7109375 1226.1640625 C610.61960571 1224.77239616 610.61960571 1224.77239616 611.54663086 1223.35261536 C613.49078116 1220.36783136 615.41354212 1217.36992447 617.3359375 1214.37109375 C618.59886714 1212.42422568 619.8631768 1210.47825209 621.12890625 1208.53320312 C623.64401883 1204.66295611 626.15023338 1200.78718809 628.6484375 1196.90600586 C632.72650599 1190.57105931 636.83534761 1184.25632564 640.94946289 1177.94474792 C661.99381599 1145.61943243 682.0827543 1112.60451132 701.3359375 1079.18359375 C701.96322754 1078.09643066 702.59051758 1077.00926758 703.23681641 1075.88916016 C722.80178414 1041.94377075 741.57092652 1007.56225688 759.48416138 972.71621704 C761.70634888 968.39674033 763.94668455 964.0870131 766.1953125 959.78125 C772.35751156 947.97403522 778.45473065 936.1336589 784.3359375 924.18359375 C784.85889404 923.14493164 785.38185059 922.10626953 785.9206543 921.03613281 C786.38769775 920.07416992 786.85474121 919.11220703 787.3359375 918.12109375 C787.9546875 916.86619141 787.9546875 916.86619141 788.5859375 915.5859375 C789.92543116 911.29537186 788.27135154 907.68140647 786.36157227 903.78662109 C785.95346817 902.94739105 785.54536407 902.10816101 785.12489319 901.24349976 C784.68020187 900.34459015 784.23551056 899.44568054 783.77734375 898.51953125 C783.31416245 897.57284576 782.85098114 896.62616028 782.37376404 895.65078735 C781.3887327 893.640513 780.40087013 891.63162385 779.41040039 889.62402344 C777.92920833 886.62098008 776.45697452 883.61368797 774.98632812 880.60546875 C769.32022503 869.04792925 763.46720658 857.6071607 757.42538452 846.24206543 C755.28057076 842.18951556 753.18955059 838.10938974 751.09008789 834.03320312 C744.36242108 820.97509725 737.44173576 808.03922143 730.3359375 795.18359375 C729.76262695 794.14267578 729.18931641 793.10175781 728.59863281 792.02929688 C719.37957913 775.2953026 709.94935703 758.69390631 700.3359375 742.18359375 C699.63466892 740.97678145 698.93349915 739.76991173 698.23242188 738.56298828 C689.70620517 723.89104064 681.04710063 709.32216227 672.04736328 694.93408203 C670.13939618 691.86772577 668.2498739 688.79048933 666.36328125 685.7109375 C665.67371338 684.58582764 664.98414551 683.46071777 664.27368164 682.30151367 C662.95766069 680.15279678 661.64291193 678.00329983 660.32983398 675.8527832 C650.81369194 660.3375226 640.73458544 645.17725976 630.72021484 629.98120117 C628.83655024 627.12202382 626.95535386 624.26123264 625.07421875 621.40039062 C619.44385693 612.84803911 613.7900072 604.31503394 607.9921875 595.875 C607.53171021 595.2046019 607.07123291 594.5342038 606.59680176 593.8434906 C604.63364724 590.87908162 604.63364724 590.87908162 602.3359375 588.18359375 C599.30784932 587.80479518 596.29602848 587.48826351 593.2578125 587.21484375 C592.31669617 587.12819458 591.37557983 587.04154541 590.40594482 586.95227051 C571.22606031 585.23813674 551.97814641 584.34086084 532.74987793 583.35931396 C529.5689825 583.1955889 526.38849401 583.025462 523.20800781 582.85400391 C449.63211657 578.97173317 374.8980141 579.03584229 301.3359375 583.18359375 Z M714.3359375 599.18359375 C715.62567696 602.64630945 717.12982988 605.64677297 719.13671875 608.74609375 C719.69464111 609.61379395 720.25256348 610.48149414 720.82739258 611.37548828 C721.72880981 612.76550049 721.72880981 612.76550049 722.6484375 614.18359375 C723.93069685 616.18034177 725.21192406 618.17775292 726.4921875 620.17578125 C727.46285156 621.68930176 727.46285156 621.68930176 728.453125 623.23339844 C743.73461753 647.17810225 758.38017331 671.57358118 772.59130859 696.16650391 C774.39342679 699.28301337 776.20223415 702.39557512 778.01171875 705.5078125 C793.01435007 731.35555471 807.36290357 757.54965525 821.39645386 783.93440247 C822.77050348 786.51699055 824.14682433 789.09836548 825.52319336 791.67971802 C826.50186093 793.51806395 827.47660335 795.35845326 828.45117188 797.19897461 C829.04607422 798.3153833 829.64097656 799.43179199 830.25390625 800.58203125 C830.77750732 801.56864746 831.3011084 802.55526367 831.84057617 803.57177734 C833.1942229 805.9360733 834.64615372 808.05108977 836.3359375 810.18359375 C856.24848897 763.22582767 874.12680731 715.52120091 890.5859375 667.24609375 C890.90062988 666.32365875 891.21532227 665.40122375 891.53955078 664.45083618 C898.15826027 648.11398534 898.15826027 648.11398534 901.3359375 631.18359375 C848.54130861 618.78222268 794.95891559 609.65551011 741.2734375 602.12109375 C740.1899704 601.96871246 739.1065033 601.81633118 737.99020386 601.65933228 C734.94856507 601.23399206 731.90618235 600.81464163 728.86328125 600.3984375 C727.96697998 600.27393219 727.07067871 600.14942688 726.1472168 600.02114868 C722.18176593 599.48763089 718.34854412 599.02362443 714.3359375 599.18359375 Z M106.45629883 599.75927734 C105.50037338 599.88758438 104.54444794 600.01589142 103.55955505 600.14808655 C102.52283157 600.2912883 101.48610809 600.43449005 100.41796875 600.58203125 C99.31836319 600.73212143 98.21875763 600.88221161 97.08583069 601.03684998 C93.43917192 601.53809991 89.79365781 602.04699061 86.1484375 602.55859375 C84.25560028 602.82402481 84.25560028 602.82402481 82.32452393 603.09481812 C38.79033405 609.23555172 -4.42103657 617.06846475 -47.5 625.8359375 C-48.45682678 626.02930695 -49.41365356 626.22267639 -50.3994751 626.42190552 C-57.2043672 627.82033203 -63.93594488 629.4545903 -70.6640625 631.18359375 C-69.43113198 637.14426566 -67.91812372 642.92299924 -66.0390625 648.7109375 C-65.78063568 649.51555923 -65.52220886 650.32018097 -65.25595093 651.14918518 C-64.39827675 653.80857523 -63.53238831 656.46516336 -62.6640625 659.12109375 C-62.35994446 660.05308594 -62.05582642 660.98507812 -61.74249268 661.9453125 C-45.32989721 712.10648588 -26.88210794 761.84445709 -5.6640625 810.18359375 C-3.49204957 807.42093534 -1.76764626 804.6616988 -0.16796875 801.53515625 C0.30157227 800.62427246 0.77111328 799.71338867 1.25488281 798.77490234 C1.75600586 797.79602051 2.25712891 796.81713867 2.7734375 795.80859375 C8.25946576 785.19794225 13.90443563 774.68692883 19.6640625 764.22265625 C21.47518455 760.93047644 23.28049581 757.6351418 25.0859375 754.33984375 C44.6349734 718.70101513 65.0594971 683.57194557 86.28265381 648.90478516 C87.34255217 647.17278459 88.40116862 645.44000639 89.45947266 643.70703125 C103.79674935 620.23597303 103.79674935 620.23597303 111.06396484 609.34301758 C113.23572187 606.05527847 115.04289643 602.91351991 116.3359375 599.18359375 C112.97912897 599.12856984 109.78196435 599.30881559 106.45629883 599.75927734 Z M-168.66796875 655.71875 C-169.56183289 655.98839066 -170.45569702 656.25803131 -171.37664795 656.5358429 C-174.32936862 657.43050453 -177.27821451 658.33713185 -180.2265625 659.24609375 C-181.75559708 659.71502045 -181.75559708 659.71502045 -183.31552124 660.19342041 C-268.44402157 686.34003714 -353.75943535 719.24011796 -448.6640625 788.18359375 C-449.67855469 789.01375 -450.69304687 789.84390625 -451.73828125 790.69921875 C-467.2559037 803.51553202 -481.9219201 817.79599097 -493.6640625 834.18359375 C-494.06657227 834.74127441 -494.46908203 835.29895508 -494.88378906 835.87353516 C-497.55726391 839.59190197 -500.13262322 843.36650223 -502.6640625 847.18359375 C-503.19515625 847.96476563 -503.72625 848.7459375 -504.2734375 849.55078125 C-519.9072959 873.84209888 -526.62784846 904.88428249 -520.6640625 933.18359375 C-517.56841387 946.03217058 -513.05765825 957.64220132 -506.6640625 969.18359375 C-506.12136719 970.20453125 -505.57867187 971.22546875 -505.01953125 972.27734375 C-496.29850539 988.06431026 -484.36886698 1001.516545 -471.6640625 1014.18359375 C-470.53560299 1015.33379687 -469.40806702 1016.48490649 -468.28125 1017.63671875 C-461.07634286 1024.96750517 -453.82124895 1031.90162258 -445.6640625 1038.18359375 C-444.19453125 1039.34375 -444.19453125 1039.34375 -442.6953125 1040.52734375 C-373.80159197 1094.65426336 -289.63542869 1129.19342124 -186.9140625 1162.37109375 C-185.58580444 1162.78282837 -185.58580444 1162.78282837 -184.23071289 1163.20288086 C-174.76853042 1166.1263653 -165.31684631 1168.94458337 -155.6640625 1171.18359375 C-152.31792646 1163.28206262 -149.59884989 1155.19466442 -146.92199707 1147.04977417 C-145.59997165 1143.03158553 -144.26396591 1139.01803928 -142.9296875 1135.00390625 C-142.65614441 1134.18037155 -142.38260132 1133.35683685 -142.10076904 1132.50834656 C-121.49444861 1070.49472006 -97.84812233 1009.54850253 -71.3515625 949.80859375 C-70.87984619 948.74125 -70.40812988 947.67390625 -69.92211914 946.57421875 C-67.51103204 941.16360704 -65.00932633 935.81749638 -62.375 930.51171875 C-61.84688721 929.42681152 -61.31877441 928.3419043 -60.7746582 927.22412109 C-59.77524497 925.18053301 -58.75188261 923.14840474 -57.69995117 921.13134766 C-54.8282111 915.24121868 -54.8282111 915.24121868 -55.45703125 908.93359375 C-56.1538713 907.33278797 -56.89559937 905.75127663 -57.6640625 904.18359375 C-58.13593994 903.1177002 -58.60781738 902.05180664 -59.09399414 900.95361328 C-60.5148844 897.75741471 -61.9689582 894.58061633 -63.4413147 891.40805054 C-71.89573035 873.16110073 -79.88769968 854.7283087 -87.6640625 836.18359375 C-88.01017578 835.35879517 -88.35628906 834.53399658 -88.71289062 833.6842041 C-105.85327764 792.79040964 -121.45036464 751.33816753 -135.89324951 709.41851807 C-136.68736592 707.11602693 -137.48419769 704.81449076 -138.28173828 702.51318359 C-143.95535073 686.13793067 -149.61647455 669.76536294 -154.6640625 653.18359375 C-159.6639992 652.77465123 -163.95099148 654.26785707 -168.66796875 655.71875 Z M985.3359375 653.18359375 C985.01544434 654.18583984 984.69495117 655.18808594 984.36474609 656.22070312 C960.87129867 729.57320423 933.678509 801.52877917 902.7109375 872.05859375 C902.06463379 873.53368408 902.06463379 873.53368408 901.40527344 875.03857422 C899.25152196 879.92915029 897.06026363 884.79781324 894.79504395 889.63793945 C893.64023608 892.11020871 892.49965773 894.58892834 891.35992432 897.06817627 C890.54311952 898.82867221 889.70514865 900.57929885 888.86669922 902.32958984 C888.37572754 903.39902832 887.88475586 904.4684668 887.37890625 905.5703125 C886.93571045 906.51092529 886.49251465 907.45153809 886.03588867 908.4206543 C884.58801465 914.13589332 888.49839445 919.94951452 890.87109375 925.11328125 C891.59640743 926.70742126 892.32149464 928.30166433 893.04638672 929.89599609 C893.62015045 931.15437286 893.62015045 931.15437286 894.20550537 932.43817139 C925.22698108 1000.58066392 953.11586666 1070.47423782 976.09765625 1141.75390625 C976.39941772 1142.68930237 976.7011792 1143.62469849 977.01208496 1144.58843994 C978.4561583 1149.07472979 979.88774961 1153.56453682 981.30126953 1158.06054688 C981.8088932 1159.65625829 982.31654151 1161.25196187 982.82421875 1162.84765625 C983.05058517 1163.58082062 983.2769516 1164.31398499 983.51017761 1165.06936646 C984.06170411 1166.79341488 984.69141693 1168.49210988 985.3359375 1170.18359375 C988.34164502 1171.68644751 990.15955274 1170.55695174 993.3515625 1169.62109375 C994.29024673 1169.34789055 994.29024673 1169.34789055 995.24789429 1169.06916809 C997.36331656 1168.44954868 999.47475765 1167.81750939 1001.5859375 1167.18359375 C1002.32511414 1166.96351654 1003.06429077 1166.74343933 1003.8258667 1166.51669312 C1057.73051761 1150.44597668 1110.4872046 1131.59146655 1161.38574219 1107.57275391 C1164.19978812 1106.24770249 1167.02063823 1104.93841255 1169.84375 1103.6328125 C1187.59887098 1095.37320628 1204.60547822 1085.88250565 1221.4609375 1075.93359375 C1222.56260254 1075.28438965 1223.66426758 1074.63518555 1224.79931641 1073.96630859 C1243.17039133 1063.03359004 1260.76530455 1050.6908723 1277.3359375 1037.18359375 C1277.86606445 1036.75256348 1278.39619141 1036.3215332 1278.94238281 1035.87744141 C1285.74461407 1030.31483004 1292.27805162 1024.48107339 1298.7109375 1018.49609375 C1299.36497559 1017.89055664 1300.01901367 1017.28501953 1300.69287109 1016.66113281 C1305.21439831 1012.41032124 1309.31261482 1007.90459885 1313.3359375 1003.18359375 C1314.54830078 1001.81074219 1314.54830078 1001.81074219 1315.78515625 1000.41015625 C1338.82587055 973.62984958 1355.60184461 940.28704704 1353.3359375 904.18359375 C1349.18683831 860.10693135 1319.80112304 823.04247007 1287.52734375 794.71875 C1284.82688115 792.49979634 1282.08719558 790.33918025 1279.3359375 788.18359375 C1278.19477222 787.25486337 1277.055558 786.32373219 1275.91796875 785.390625 C1253.70015521 767.23349293 1229.40338298 752.07142381 1204.3359375 738.18359375 C1203.3783252 737.64798828 1202.42071289 737.11238281 1201.43408203 736.56054688 C1141.24044847 702.9814133 1076.15666371 679.68014899 1010.52423096 659.25106812 C1008.78841079 658.71066442 1007.05316908 658.16839876 1005.31854248 657.62417603 C1002.91124401 656.8707787 1000.50113839 656.12721166 998.08984375 655.38671875 C997.02052864 655.05020546 997.02052864 655.05020546 995.92961121 654.70689392 C992.30151597 653.60589354 989.13298858 652.92417076 985.3359375 653.18359375 Z M-5.6640625 1013.18359375 C-26.75447984 1064.04655206 -46.12082136 1115.40481323 -63.6015625 1167.62109375 C-63.95911621 1168.68571838 -64.31666992 1169.75034302 -64.68505859 1170.847229 C-65.69247748 1173.85214656 -66.69322125 1176.85919174 -67.69140625 1179.8671875 C-67.99372665 1180.76822708 -68.29604706 1181.66926666 -68.60752869 1182.59761047 C-68.88004959 1183.42447861 -69.1525705 1184.25134674 -69.43334961 1185.10327148 C-69.67234482 1185.82264389 -69.91134003 1186.5420163 -70.15757751 1187.28318787 C-70.79282501 1189.33893942 -70.79282501 1189.33893942 -70.6640625 1192.18359375 C-57.06413244 1195.78342596 -43.33179267 1198.61848359 -29.5390625 1201.37109375 C-28.34721344 1201.6093689 -27.15536438 1201.84764404 -25.92739868 1202.09313965 C9.85970428 1209.21968605 45.82821342 1215.10920438 81.9609375 1220.18359375 C83.01487701 1220.33179565 84.06881653 1220.47999756 85.1546936 1220.63269043 C100.70169397 1222.81069278 100.70169397 1222.81069278 116.3359375 1224.18359375 C113.68778615 1218.67323725 110.78131982 1213.58153294 107.3984375 1208.49609375 C100.85324454 1198.50821323 94.57279175 1188.36621294 88.3359375 1178.18359375 C87.67255371 1177.10078125 87.00916992 1176.01796875 86.32568359 1174.90234375 C77.06446767 1159.77160833 67.95681272 1144.56137333 59.08056641 1129.20068359 C57.27844821 1126.08417413 55.46964085 1122.97161238 53.66015625 1119.859375 C41.22675478 1098.43766038 29.23023296 1076.78351846 17.47265625 1054.984375 C15.36455217 1051.07796935 13.2417724 1047.18011782 11.10546875 1043.2890625 C5.64741131 1033.34589476 0.283537 1023.39237301 -4.6640625 1013.18359375 C-4.9940625 1013.18359375 -5.3240625 1013.18359375 -5.6640625 1013.18359375 Z M835.3359375 1013.18359375 C835.09584961 1013.67424316 834.85576172 1014.16489258 834.60839844 1014.67041016 C828.85647183 1026.38799911 822.83019038 1037.91735927 816.53515625 1049.3515625 C813.70860279 1054.48732873 810.93352666 1059.64944857 808.16723633 1064.81787109 C801.08106049 1078.0512678 793.79904776 1091.15935325 786.3359375 1104.18359375 C785.75763184 1105.19325195 785.17932617 1106.20291016 784.58349609 1107.24316406 C780.19046711 1114.90323251 775.77082149 1122.5476927 771.3359375 1130.18359375 C770.8177948 1131.07615875 770.8177948 1131.07615875 770.28918457 1131.98675537 C761.39735928 1147.29966219 752.40675483 1162.53497673 742.99560547 1177.53662109 C741.19924049 1180.40160919 739.4097219 1183.27080086 737.62109375 1186.140625 C732.67540212 1194.07107829 727.72740585 1201.9997328 722.71875 1209.890625 C722.15744385 1210.77540527 721.5961377 1211.66018555 721.01782227 1212.57177734 C719.96053489 1214.23621196 718.90121687 1215.8993589 717.83959961 1217.56103516 C717.37561768 1218.29112793 716.91163574 1219.0212207 716.43359375 1219.7734375 C716.02633057 1220.41144287 715.61906738 1221.04944824 715.19946289 1221.70678711 C714.25180968 1223.04234623 714.25180968 1223.04234623 714.3359375 1224.18359375 C727.49267212 1223.60579407 740.44690115 1221.60023759 753.4609375 1219.68359375 C754.66100433 1219.50785828 755.86107117 1219.3321228 757.09750366 1219.15106201 C792.42658603 1213.96113065 827.56708761 1207.85085873 862.5859375 1200.87109375 C863.62634186 1200.66421936 864.66674622 1200.45734497 865.73867798 1200.24420166 C877.68821396 1197.85813258 889.55011346 1195.28349991 901.3359375 1192.18359375 C899.69092843 1183.64476055 896.92435718 1175.52887362 894.1484375 1167.30859375 C893.88816772 1166.53404846 893.62789795 1165.75950317 893.35974121 1164.96148682 C891.3666568 1159.03044609 889.35464874 1153.10595496 887.3359375 1147.18359375 C887.04338074 1146.32419189 886.75082397 1145.46479004 886.44940186 1144.5793457 C872.34772155 1103.18700038 856.69115828 1062.52175012 839.96142578 1022.1237793 C838.73197107 1019.15187542 837.52091106 1016.17358516 836.3359375 1013.18359375 C836.0059375 1013.18359375 835.6759375 1013.18359375 835.3359375 1013.18359375 Z M-94.6640625 1275.18359375 C-96.87838818 1280.07113286 -97.95908949 1285.19167324 -99.16796875 1290.39453125 C-99.40710999 1291.41327835 -99.64625122 1292.43202545 -99.89263916 1293.48164368 C-100.67716268 1296.83914564 -101.45330065 1300.19848085 -102.2265625 1303.55859375 C-102.49350922 1304.71783356 -102.76045593 1305.87707336 -103.03549194 1307.07144165 C-115.3014023 1360.54146185 -124.34999816 1414.46541036 -128.6640625 1469.18359375 C-128.81875 1471.09108398 -128.81875 1471.09108398 -128.9765625 1473.03710938 C-129.99590746 1487.56277498 -129.90985539 1502.12905974 -129.9140625 1516.68359375 C-129.91450436 1517.38425713 -129.91494621 1518.0849205 -129.91540146 1518.8068161 C-129.92242125 1540.0560039 -129.72276666 1561.10698132 -126.6640625 1582.18359375 C-126.39070068 1584.06957275 -126.39070068 1584.06957275 -126.11181641 1585.99365234 C-118.90541605 1633.94601563 -104.12659005 1686.11831718 -63.6640625 1716.74609375 C-36.65817591 1736.41368342 -1.98822109 1740.53698821 30.47265625 1735.984375 C79.77163027 1728.195983 126.04200078 1707.36387416 168.56201172 1681.84179688 C171.16494683 1680.28580891 173.78035974 1678.75407495 176.40234375 1677.23046875 C204.12014011 1661.02766438 229.94455467 1641.76959263 255.3359375 1622.18359375 C256.02236328 1621.65459473 256.70878906 1621.1255957 257.41601562 1620.58056641 C264.85602558 1614.83268179 272.10907199 1608.9025686 279.2578125 1602.796875 C282.0630107 1600.40477106 284.91056907 1598.06903524 287.7734375 1595.74609375 C297.34760123 1587.93668879 306.70337193 1579.90200774 315.72216797 1571.45581055 C318.51030881 1568.84738666 321.33658077 1566.29747685 324.21875 1563.79296875 C328.34409549 1560.20035355 332.35192743 1556.49421485 336.3359375 1552.74609375 C337.03219238 1552.09302246 337.72844727 1551.43995117 338.44580078 1550.76708984 C342.70178815 1546.76221669 346.89348857 1542.70917986 350.953125 1538.50390625 C352.3359375 1537.18359375 352.3359375 1537.18359375 354.3359375 1536.18359375 C353.03770275 1532.3679698 351.58626892 1530.11268496 348.6484375 1527.37109375 C345.32183711 1524.16991277 342.24962557 1520.87065805 339.2421875 1517.37109375 C337.02648102 1514.82847976 334.74495158 1512.35249177 332.4609375 1509.87109375 C329.15256836 1506.2483547 325.97581392 1502.56666484 322.8984375 1498.74609375 C319.67648675 1494.75132941 316.32915767 1490.93827708 312.8359375 1487.18359375 C308.62244627 1482.65022825 304.65300269 1477.97408905 300.7734375 1473.15234375 C297.90668234 1469.66078298 294.93833566 1466.26819221 291.9609375 1462.87109375 C287.24803879 1457.4805278 282.74230318 1451.97460987 278.35986328 1446.31323242 C275.28176494 1442.34904874 272.10110909 1438.49479032 268.8359375 1434.68359375 C264.11983167 1429.17102347 259.61731465 1423.51591584 255.16015625 1417.79296875 C252.72010096 1414.66271906 250.24167552 1411.56504594 247.75268555 1408.47363281 C243.03333325 1402.61162182 238.4144848 1396.69707054 233.9296875 1390.65234375 C231.21155451 1386.9987494 228.43622569 1383.38950362 225.66625977 1379.77514648 C218.25838636 1370.10170353 211.02077131 1360.32697172 203.93457031 1350.41601562 C200.59871923 1345.75764326 197.24026915 1341.11546412 193.87841797 1336.47583008 C191.52438142 1333.2253793 189.17863915 1329.97158203 186.8828125 1326.6796875 C186.18671875 1325.69097656 185.490625 1324.70226563 184.7734375 1323.68359375 C183.90525391 1322.430625 183.90525391 1322.430625 183.01953125 1321.15234375 C180.00414165 1317.62622691 176.81134547 1316.93192742 172.30688477 1316.5168457 C171.29490021 1316.41916901 170.28291565 1316.32149231 169.24026489 1316.22085571 C167.58799393 1316.07286026 167.58799393 1316.07286026 165.90234375 1315.921875 C163.5024991 1315.69189745 161.10267924 1315.46166111 158.70288086 1315.23120117 C157.43282196 1315.1119931 156.16276306 1314.99278503 154.85421753 1314.8699646 C148.10853092 1314.23241257 141.36639984 1313.56015642 134.625 1312.87890625 C133.93749853 1312.80947248 133.24999706 1312.74003872 132.54166222 1312.6685009 C110.06816314 1310.38919145 87.69249671 1307.40189377 65.3359375 1304.18359375 C64.18798706 1304.01837219 63.04003662 1303.85315063 61.8572998 1303.68292236 C9.31934777 1296.08445823 -42.71249112 1286.03835686 -94.6640625 1275.18359375 Z M914.88720703 1277.20239258 C913.30190941 1277.54017479 913.30190941 1277.54017479 911.68458557 1277.88478088 C909.96899696 1278.25892372 909.96899696 1278.25892372 908.21875 1278.640625 C905.70073803 1279.17674507 903.18258338 1279.71219532 900.66430664 1280.24707031 C899.31730151 1280.53482415 897.97030665 1280.8226261 896.62332153 1281.11047363 C821.73714452 1297.07736476 745.63096305 1309.06064045 669.33740234 1315.71533203 C668.37626022 1315.80065689 667.4151181 1315.88598175 666.42485046 1315.97389221 C664.61833561 1316.13209967 662.81122622 1316.28371901 661.00349426 1316.42735291 C653.74546418 1316.95475605 653.74546418 1316.95475605 647.78125 1320.77734375 C647.12769531 1321.7209375 647.12769531 1321.7209375 646.4609375 1322.68359375 C645.95747803 1323.39660645 645.45401855 1324.10961914 644.93530273 1324.84423828 C644.40751221 1325.61622559 643.87972168 1326.38821289 643.3359375 1327.18359375 C642.1812531 1328.8270081 641.02629759 1330.47023199 639.87109375 1332.11328125 C638.99155029 1333.37736816 638.99155029 1333.37736816 638.09423828 1334.66699219 C635.36204657 1338.57749374 632.56952215 1342.44364104 629.7734375 1346.30859375 C629.23380371 1347.05641113 628.69416992 1347.80422852 628.13818359 1348.57470703 C623.16500175 1355.45295643 618.07958662 1362.24317485 612.96630859 1369.01757812 C611.18356614 1371.38602542 609.40950473 1373.76081059 607.63671875 1376.13671875 C597.72418458 1389.41468161 587.58957157 1402.45691094 577.10546875 1415.28735352 C573.7318868 1419.42752172 570.43946692 1423.61713052 567.2109375 1427.87109375 C562.97377401 1433.4267911 558.52502129 1438.76154488 553.984375 1444.0703125 C551.57857636 1446.88573777 549.23141487 1449.74487796 546.8984375 1452.62109375 C542.94252974 1457.48282654 538.87513651 1462.23947927 534.78198242 1466.98535156 C531.69878789 1470.56824471 528.68074448 1474.19294058 525.7109375 1477.87109375 C521.90451158 1482.5638535 517.87765979 1487.00965638 513.78515625 1491.453125 C511.47533168 1494.02819258 509.30350737 1496.66613738 507.1484375 1499.37109375 C502.64566085 1504.95742628 497.77226967 1510.15421495 492.82739258 1515.3503418 C482.35788096 1524.82664148 482.35788096 1524.82664148 476.3359375 1536.18359375 C477.68531087 1537.54771655 477.68531087 1537.54771655 479.5234375 1538.99609375 C483.5057425 1542.37008928 487.1746687 1545.9711516 490.8359375 1549.68359375 C494.80946787 1553.69825681 498.8053639 1557.58756521 503.11328125 1561.24609375 C506.25591526 1563.98554273 509.28944187 1566.83809744 512.3359375 1569.68359375 C517.2619986 1574.27468012 522.21935293 1578.80453488 527.3359375 1583.18359375 C528.38162751 1584.08319725 529.42718819 1584.98295108 530.47265625 1585.8828125 C533.48896276 1588.47643032 536.51145643 1591.06271841 539.53662109 1593.64599609 C540.6967601 1594.63738761 541.85600845 1595.62982279 543.01416016 1596.62353516 C550.12524413 1602.72455845 557.35974318 1608.62439351 564.75390625 1614.37890625 C567.15058368 1616.24683755 569.52652259 1618.13696861 571.88671875 1620.05078125 C645.315809 1679.58278042 742.40635936 1744.08332366 841.14648438 1736.98144531 C870.24572272 1733.91410316 896.68520656 1719.35617025 915.1640625 1696.76953125 C945.06207462 1659.102973 955.10547335 1610.02976292 959.3359375 1563.18359375 C959.47950684 1561.6665686 959.47950684 1561.6665686 959.62597656 1560.11889648 C960.74123264 1546.36107358 960.5832301 1532.53958279 960.5859375 1518.74609375 C960.58623207 1518.05772179 960.58652664 1517.36934982 960.58683014 1516.6601181 C960.58845844 1493.05048745 959.91278466 1469.66705257 957.3359375 1446.18359375 C957.18674866 1444.80962433 957.18674866 1444.80962433 957.0345459 1443.40789795 C950.84775463 1386.83392357 939.79332453 1331.44109613 926.3359375 1276.18359375 C922.34707565 1276.08808901 918.78373982 1276.35820327 914.88720703 1277.20239258 Z M293.3359375 1326.18359375 C298.01712229 1333.64978722 303.40633833 1340.48144822 308.88916016 1347.36181641 C310.27946563 1349.11248455 311.65951713 1350.87060519 313.03515625 1352.6328125 C320.0189832 1361.57864676 327.15404211 1370.39627795 334.3359375 1379.18359375 C335.16351562 1380.19679688 335.99109375 1381.21 336.84375 1382.25390625 C338.3074002 1384.04394534 339.77219275 1385.83305115 341.23828125 1387.62109375 C342.65111344 1389.34701166 344.05989459 1391.07625277 345.46484375 1392.80859375 C350.18327748 1398.6158968 355.00474202 1404.32176999 359.89160156 1409.98706055 C362.95572468 1413.5470801 365.95161978 1417.15011164 368.8984375 1420.80859375 C372.51240005 1425.26559639 376.33283583 1429.49613997 380.24145508 1433.69262695 C383.32709483 1437.0251612 386.23769638 1440.45516814 389.0859375 1443.99609375 C392.09724301 1447.73611377 395.20876695 1451.17544483 398.65625 1454.51171875 C401.73108597 1457.57225316 404.50850335 1460.89631316 407.3359375 1464.18359375 C408.64716538 1465.6847059 409.95962796 1467.18474061 411.2734375 1468.68359375 C412.29427083 1469.85026042 413.31510417 1471.01692708 414.3359375 1472.18359375 C419.19915089 1468.18620733 423.59886983 1463.96035859 427.8359375 1459.30859375 C428.40562256 1458.68855469 428.97530762 1458.06851562 429.56225586 1457.4296875 C434.00916123 1452.57643685 438.36781983 1447.65840914 442.64306641 1442.65332031 C444.16527817 1440.87139229 445.68800724 1439.08990774 447.2109375 1437.30859375 C447.73091309 1436.69975342 448.25088867 1436.09091309 448.78662109 1435.46362305 C451.81538526 1431.92659114 454.88773213 1428.4393289 458.0234375 1424.99609375 C461.80080195 1420.83286949 465.36021018 1416.52651484 468.89453125 1412.15625 C471.61312998 1408.84608418 474.40667203 1405.60854208 477.2109375 1402.37109375 C481.72289923 1397.15029339 486.03848522 1391.81043219 490.265625 1386.35742188 C493.31555458 1382.43795649 496.47133592 1378.63466262 499.7109375 1374.87109375 C504.50038975 1369.29084094 508.9761481 1363.50389673 513.41381836 1357.64160156 C517.12799065 1352.7409499 520.91663805 1347.91019995 524.7734375 1343.12109375 C532.3073381 1335.23620876 532.3073381 1335.23620876 536.3359375 1326.18359375 C528.15390185 1326.13200565 520.00955623 1326.26651398 511.8359375 1326.62109375 C446.52608014 1329.15155795 380.98692943 1329.13704873 315.68115234 1326.49072266 C308.22741711 1326.19208568 300.7963956 1326.05948262 293.3359375 1326.18359375 Z " fill="#000000" transform="translate(608.6640625,111.81640625)"/>
<path d="M0 0 C0.61117676 0.32226562 1.22235352 0.64453125 1.85205078 0.9765625 C14.1176401 7.49524459 24.59905017 15.57703174 34.79296875 24.98046875 C36.71482152 26.73904907 38.67647489 28.40819775 40.6875 30.0625 C44.54997439 33.36935163 47.77523993 37.07748482 51 41 C51.83660156 42.010625 52.67320312 43.02125 53.53515625 44.0625 C85.53743005 83.36473959 99.00331874 131.68659738 94.53125 182.03125 C90.3925367 219.74283503 73.68385172 255.99844555 47.98828125 283.82421875 C46.39293179 285.57001374 44.90064268 287.33288102 43.4375 289.1875 C40.25581105 292.85867955 36.70858647 295.87436859 33 299 C32.14664062 299.7528125 31.29328125 300.505625 30.4140625 301.28125 C17.59391641 312.38033539 3.35027304 320.88283627 -12 328 C-13.11375 328.53238281 -14.2275 329.06476563 -15.375 329.61328125 C-30.73558462 336.62335937 -47.32370604 340.65384123 -64 343 C-64.65460205 343.0942627 -65.3092041 343.18852539 -65.98364258 343.28564453 C-112.68394152 349.31531704 -159.73716764 335.96537943 -197.5 308.375 C-202.11404461 304.80757132 -206.47372465 301.01028299 -210.7578125 297.0546875 C-212.69106313 295.28310243 -214.66289334 293.60217659 -216.6875 291.9375 C-220.54997439 288.63064837 -223.77523993 284.92251518 -227 281 C-228.25490234 279.4840625 -228.25490234 279.4840625 -229.53515625 277.9375 C-261.48452952 238.70022796 -275.20099584 190.15677606 -270.49609375 139.86328125 C-267.7981058 116.08405664 -260.21967588 94.03153938 -249 73 C-248.67773438 72.38882324 -248.35546875 71.77764648 -248.0234375 71.14794922 C-241.50475541 58.8823599 -233.42296826 48.40094983 -224.01953125 38.20703125 C-222.26095093 36.28517848 -220.59180225 34.32352511 -218.9375 32.3125 C-215.63064837 28.45002561 -211.92251518 25.22476007 -208 22 C-206.989375 21.16339844 -205.97875 20.32679688 -204.9375 19.46484375 C-146.68676141 -27.96645037 -66.08462747 -35.25410516 0 0 Z " fill="#000000" transform="translate(1112,863)"/>
</svg>
