<?xml version="1.0" encoding="UTF-8"?>
<svg version="1.1" xmlns="http://www.w3.org/2000/svg" width="2048" height="2048">
<path d="M0 0 C675.84 0 1351.68 0 2048 0 C2048 675.84 2048 1351.68 2048 2048 C1372.16 2048 696.32 2048 0 2048 C0 1372.16 0 696.32 0 0 Z M1541.21875 934.05419922 C1489.33508691 935.24843004 1436.91850201 948.61405618 1393 977 C1392.33887207 977.42603516 1391.67774414 977.85207031 1390.99658203 978.29101562 C1377.18011614 987.29088484 1364.49657721 997.58100652 1352.4375 1008.8125 C1351.79490234 1009.41030273 1351.15230469 1010.00810547 1350.49023438 1010.62402344 C1346.03306945 1014.84598791 1341.96152472 1019.31245879 1338 1024 C1337.5062085 1024.58225342 1337.01241699 1025.16450684 1336.50366211 1025.7644043 C1309.87784841 1057.52477292 1289.98934437 1097.7494451 1284 1139 C1283.89848633 1139.6796582 1283.79697266 1140.35931641 1283.69238281 1141.05957031 C1279.44953475 1171.18780686 1280.75883326 1203.83187002 1284 1234 C1284.11827148 1235.1039209 1284.23654297 1236.2078418 1284.35839844 1237.34521484 C1291.16292931 1296.81127406 1327.54950823 1354.76609372 1373.375 1392.625 C1375.24395787 1394.09106875 1377.11976636 1395.54842066 1379 1397 C1380.36055004 1398.08707265 1381.7198193 1399.17574933 1383.078125 1400.265625 C1411.29789377 1422.76433683 1443.46728039 1440.31855642 1476.06103516 1455.60839844 C1478.91082297 1456.95777462 1481.74443934 1458.33578035 1484.57421875 1459.7265625 C1502.04245219 1468.28684739 1519.84846631 1476.03528073 1537.67762756 1483.80606079 C1671.56896908 1542.16275886 1671.56896908 1542.16275886 1688.91943359 1583.953125 C1692.7742637 1594.82259624 1693.52973527 1605.9903171 1693.4375 1617.4375 C1693.43144241 1618.45206268 1693.43144241 1618.45206268 1693.42526245 1619.48712158 C1693.24167946 1641.44908645 1687.03160824 1660.37870181 1671.15234375 1676.07421875 C1641.13462416 1704.40210692 1598.63481419 1712.92356428 1558.52734375 1712.24609375 C1520.35694245 1711.09634841 1479.38758363 1701.10049736 1449 1677 C1448.06285156 1676.27167969 1447.12570312 1675.54335937 1446.16015625 1674.79296875 C1429.71571933 1661.69876145 1413.83006965 1646.65533116 1401 1630 C1400.17267613 1628.95119047 1399.34451521 1627.90304082 1398.515625 1626.85546875 C1393.63392382 1620.6440781 1389.0879839 1614.29632832 1384.76171875 1607.6796875 C1382.59547717 1604.38469476 1380.31901992 1601.18865238 1378 1598 C1371.81836396 1599.62838399 1366.68904157 1602.94241683 1361.25 1606.1875 C1359.08894367 1607.46292098 1356.927471 1608.73763673 1354.765625 1610.01171875 C1353.64994141 1610.67091309 1352.53425781 1611.33010742 1351.38476562 1612.00927734 C1345.94407975 1615.20917294 1340.47178526 1618.35368231 1335 1621.5 C1326.65162112 1626.30782718 1318.31751277 1631.13897341 1310 1636 C1301.68248197 1640.86102967 1293.34793492 1645.69139603 1285 1650.5 C1273.54676537 1657.09858899 1262.11925926 1663.74009326 1250.7109375 1670.41601562 C1248.13276979 1671.92242342 1245.55126994 1673.42294424 1242.96875 1674.921875 C1241.45827063 1675.80197572 1239.94784984 1676.682177 1238.4375 1677.5625 C1237.77741943 1677.9438208 1237.11733887 1678.3251416 1236.43725586 1678.71801758 C1232.10525572 1681.25078803 1228.04916974 1684.03477789 1224 1687 C1226.65604269 1694.4453165 1230.12778957 1700.88935761 1234.4375 1707.5 C1235.05004639 1708.45052246 1235.66259277 1709.40104492 1236.29370117 1710.38037109 C1242.21502198 1719.48623586 1248.51621216 1728.28905739 1255 1737 C1255.84393574 1738.14309206 1256.68769873 1739.28631169 1257.53125 1740.4296875 C1273.49000411 1761.90842162 1291.56232054 1782.88535852 1313.28271484 1798.73144531 C1315.10648209 1800.07865808 1316.89179525 1801.46778171 1318.67578125 1802.8671875 C1385.90013773 1855.19650087 1471.90429797 1878.58086285 1556 1880 C1557.26827637 1880.02191406 1558.53655273 1880.04382812 1559.84326172 1880.06640625 C1649.03085146 1881.4374595 1743.07756524 1862.07253702 1813 1796 C1813.84328857 1795.19755859 1813.84328857 1795.19755859 1814.70361328 1794.37890625 C1823.30782701 1786.15229948 1830.91653871 1777.55957424 1838 1768 C1838.85023745 1766.88019089 1839.7004977 1765.7603991 1840.55078125 1764.640625 C1847.30462303 1755.60891441 1852.8204208 1746.00553252 1858 1736 C1858.39606445 1735.23526367 1858.79212891 1734.47052734 1859.20019531 1733.68261719 C1892.32734433 1668.82343443 1891.8354435 1587.22734196 1870 1519 C1861.75623337 1493.54913035 1849.58417768 1469.99486323 1833 1449 C1831.94039062 1447.65035156 1831.94039062 1447.65035156 1830.859375 1446.2734375 C1824.9186573 1438.85822513 1818.52648355 1431.89700377 1812 1425 C1811.04287109 1423.9790625 1811.04287109 1423.9790625 1810.06640625 1422.9375 C1805.98811459 1418.7125072 1801.50847854 1415.04980569 1796.93359375 1411.375 C1794.03523632 1409.02852687 1791.20787743 1406.61234982 1788.375 1404.1875 C1742.00187977 1365.53326043 1683.84018404 1339.28074396 1629 1315 C1627.56737718 1314.3647588 1626.13476007 1313.72950471 1624.70214844 1313.09423828 C1613.57428562 1308.16311109 1602.43353206 1303.26122049 1591.28759766 1298.37109375 C1497.44610436 1257.16294316 1497.44610436 1257.16294316 1480 1226 C1479.46503906 1225.05253906 1478.93007812 1224.10507813 1478.37890625 1223.12890625 C1467.18816588 1202.11487258 1466.0573614 1177.10280697 1472.26367188 1154.33398438 C1478.26666799 1135.30591978 1490.90685511 1120.20249068 1508.38671875 1110.8203125 C1536.50827734 1096.33458855 1572.27297166 1096.25692971 1602.14770508 1105.30834961 C1615.56570803 1109.63367667 1627.24694386 1115.77748835 1638 1125 C1638.80953125 1125.68835937 1639.6190625 1126.37671875 1640.453125 1127.0859375 C1650.87915728 1136.20072032 1658.91587211 1146.47490891 1666.91015625 1157.69921875 C1670.42622194 1162.62342534 1674.0846062 1167.38376006 1678 1172 C1678.46792969 1172.57492187 1678.93585938 1173.14984375 1679.41796875 1173.7421875 C1680.75832544 1175.35763277 1680.75832544 1175.35763277 1683 1177 C1686.89723979 1176.65456743 1689.46460452 1175.30812613 1692.67578125 1173.1484375 C1693.57377441 1172.55216553 1694.47176758 1171.95589355 1695.39697266 1171.34155273 C1696.35909668 1170.69259033 1697.3212207 1170.04362793 1698.3125 1169.375 C1700.38793852 1167.99661115 1702.46480651 1166.62037267 1704.54296875 1165.24609375 C1705.6107959 1164.53952637 1706.67862305 1163.83295898 1707.77880859 1163.10498047 C1712.84125196 1159.79678078 1717.98197329 1156.61836977 1723.125 1153.4375 C1733.31805007 1147.10882547 1743.32406737 1140.53808439 1753.27246094 1133.83300781 C1757.1868259 1131.2024088 1761.11641327 1128.59488541 1765.04467773 1125.98510742 C1776.42843885 1118.41788824 1787.76339849 1110.78427453 1799 1103 C1799.75958008 1102.47390137 1800.51916016 1101.94780273 1801.30175781 1101.40576172 C1815.83745976 1092.75333616 1815.83745976 1092.75333616 1827 1081 C1820.85186596 1065.02752805 1807.22918399 1050.74158833 1796.43994141 1037.74414062 C1794.41245602 1035.28833263 1792.42994304 1032.79677132 1790.4375 1030.3125 C1780.91782568 1018.68903024 1770.48760264 1007.68876874 1759 998 C1758.47325684 997.54882812 1757.94651367 997.09765625 1757.40380859 996.6328125 C1695.87033932 944.12787933 1619.7174288 932.52446724 1541.21875 934.05419922 Z M451 945 C444.65447266 995.76421875 449 1068.88015794 449 1111 C536.78 1111 624.56 1111 715 1111 C715 1361.14 715 1611.28 715 1869 C777.04 1869 839.08 1869 903 1869 C903 1618.86 903 1368.72 903 1111 C991.11 1111 1079.22 1111 1170 1111 C1170.01566464 1079.38526503 1170.01566464 1079.38526503 1169.81640625 1047.7734375 C1169.79631863 1045.70146749 1169.77629599 1043.62949685 1169.7563324 1041.55752563 C1169.71479962 1037.2985896 1169.67176779 1033.03967209 1169.62768555 1028.78076172 C1169.57241116 1023.41853157 1169.52222383 1018.05626665 1169.47328281 1012.69397545 C1169.43371592 1008.44484866 1169.39081344 1004.19575989 1169.34705925 999.94667435 C1169.32720435 997.97223636 1169.30842436 995.99778715 1169.29092598 994.02332687 C1169.18511876 982.26500319 1168.90748891 970.52219054 1168.48716736 958.7706604 C1168.43983264 957.42670928 1168.39259075 956.08275489 1168.34544325 954.73879719 C1168.23120336 951.49249826 1168.11603783 948.24623507 1168 945 C1105.98183673 944.38621261 1043.9665961 943.90350537 981.94506836 943.87060547 C981.27436107 943.8702412 980.60365377 943.86987694 979.91262201 943.86950164 C962.42428296 943.86025162 944.93594818 943.86063001 927.44760772 943.86470055 C917.06927936 943.8670673 906.69095254 943.86727553 896.31262398 943.86618423 C895.55892421 943.86610785 894.80522445 943.86603146 894.02868529 943.86595276 C890.96543793 943.86564117 887.90219056 943.86532274 884.8389432 943.864993 C856.54781164 943.86198425 828.25668333 943.86463003 799.96555228 943.8700899 C775.0055976 943.87487009 750.04564801 943.87437176 725.08569336 943.86962891 C696.70382964 943.86425314 668.32196871 943.86215919 639.94010454 943.86524117 C636.90950271 943.8655617 633.87890087 943.86587455 630.84829903 943.86618423 C629.72985706 943.86630285 629.72985706 943.86630285 628.58882031 943.86642386 C617.46071663 943.86754872 606.33261503 943.86625592 595.20451164 943.86370468 C582.58129961 943.86082418 569.9580934 943.86160691 557.33488207 943.86698543 C550.92708324 943.86958131 544.51929469 943.8706984 538.11149597 943.86733627 C509.05865014 943.8533005 480.04011384 944.10548747 451 945 Z " fill="#000000" transform="translate(0,0)"/>
</svg>
